<mxfile host="app.diagrams.net" agent="Mozilla/5.0 (Windows NT 10.0; Win64; x64) AppleWebKit/537.36 (KHTML, like Gecko) Chrome/131.0.0.0 Safari/537.36 Edg/131.0.0.0" version="25.0.3">
  <diagram name="Страница — 1" id="LDdIF5J9_8_lLwIVbSU_">
    <mxGraphModel dx="1107" dy="932" grid="1" gridSize="10" guides="1" tooltips="1" connect="1" arrows="0" fold="1" page="1" pageScale="1" pageWidth="1169" pageHeight="827" math="0" shadow="0">
      <root>
        <mxCell id="0" />
        <mxCell id="1" parent="0" />
        <mxCell id="TaqGsP5J0sDB7Q5JTHYA-29" style="edgeStyle=none;rounded=0;orthogonalLoop=1;jettySize=auto;html=1;exitX=0.5;exitY=1;exitDx=0;exitDy=0;entryX=0.5;entryY=0;entryDx=0;entryDy=0;strokeColor=default;startArrow=none;startFill=0;endArrow=none;endFill=0;" edge="1" parent="1" source="TaqGsP5J0sDB7Q5JTHYA-1" target="TaqGsP5J0sDB7Q5JTHYA-2">
          <mxGeometry relative="1" as="geometry">
            <mxPoint x="130" y="90" as="targetPoint" />
          </mxGeometry>
        </mxCell>
        <mxCell id="TaqGsP5J0sDB7Q5JTHYA-30" style="edgeStyle=none;rounded=0;orthogonalLoop=1;jettySize=auto;html=1;exitX=0.5;exitY=1;exitDx=0;exitDy=0;entryX=0.5;entryY=0;entryDx=0;entryDy=0;endArrow=none;endFill=0;" edge="1" parent="1" source="TaqGsP5J0sDB7Q5JTHYA-1" target="TaqGsP5J0sDB7Q5JTHYA-6">
          <mxGeometry relative="1" as="geometry" />
        </mxCell>
        <mxCell id="TaqGsP5J0sDB7Q5JTHYA-31" style="edgeStyle=none;rounded=0;orthogonalLoop=1;jettySize=auto;html=1;exitX=0.5;exitY=1;exitDx=0;exitDy=0;entryX=0.5;entryY=0;entryDx=0;entryDy=0;endArrow=none;endFill=0;" edge="1" parent="1" source="TaqGsP5J0sDB7Q5JTHYA-1" target="TaqGsP5J0sDB7Q5JTHYA-5">
          <mxGeometry relative="1" as="geometry" />
        </mxCell>
        <mxCell id="TaqGsP5J0sDB7Q5JTHYA-32" style="edgeStyle=none;rounded=0;orthogonalLoop=1;jettySize=auto;html=1;exitX=0.5;exitY=1;exitDx=0;exitDy=0;entryX=0.5;entryY=0;entryDx=0;entryDy=0;endArrow=none;endFill=0;" edge="1" parent="1" source="TaqGsP5J0sDB7Q5JTHYA-1" target="TaqGsP5J0sDB7Q5JTHYA-4">
          <mxGeometry relative="1" as="geometry" />
        </mxCell>
        <mxCell id="TaqGsP5J0sDB7Q5JTHYA-33" style="edgeStyle=none;rounded=0;orthogonalLoop=1;jettySize=auto;html=1;exitX=0.5;exitY=1;exitDx=0;exitDy=0;entryX=0.5;entryY=0;entryDx=0;entryDy=0;endArrow=none;endFill=0;" edge="1" parent="1" source="TaqGsP5J0sDB7Q5JTHYA-1" target="TaqGsP5J0sDB7Q5JTHYA-3">
          <mxGeometry relative="1" as="geometry" />
        </mxCell>
        <mxCell id="TaqGsP5J0sDB7Q5JTHYA-34" style="edgeStyle=none;rounded=0;orthogonalLoop=1;jettySize=auto;html=1;exitX=0.5;exitY=1;exitDx=0;exitDy=0;entryX=0.5;entryY=0;entryDx=0;entryDy=0;endArrow=none;endFill=0;" edge="1" parent="1" source="TaqGsP5J0sDB7Q5JTHYA-1" target="TaqGsP5J0sDB7Q5JTHYA-7">
          <mxGeometry relative="1" as="geometry" />
        </mxCell>
        <mxCell id="TaqGsP5J0sDB7Q5JTHYA-35" style="edgeStyle=none;rounded=0;orthogonalLoop=1;jettySize=auto;html=1;exitX=0.5;exitY=1;exitDx=0;exitDy=0;entryX=0.5;entryY=0;entryDx=0;entryDy=0;endArrow=none;endFill=0;" edge="1" parent="1" source="TaqGsP5J0sDB7Q5JTHYA-1" target="TaqGsP5J0sDB7Q5JTHYA-11">
          <mxGeometry relative="1" as="geometry" />
        </mxCell>
        <mxCell id="TaqGsP5J0sDB7Q5JTHYA-36" style="edgeStyle=none;rounded=0;orthogonalLoop=1;jettySize=auto;html=1;exitX=0.5;exitY=1;exitDx=0;exitDy=0;entryX=0.5;entryY=0;entryDx=0;entryDy=0;endArrow=none;endFill=0;" edge="1" parent="1" source="TaqGsP5J0sDB7Q5JTHYA-1" target="TaqGsP5J0sDB7Q5JTHYA-10">
          <mxGeometry relative="1" as="geometry" />
        </mxCell>
        <mxCell id="TaqGsP5J0sDB7Q5JTHYA-37" style="edgeStyle=none;rounded=0;orthogonalLoop=1;jettySize=auto;html=1;exitX=0.5;exitY=1;exitDx=0;exitDy=0;entryX=0.5;entryY=0;entryDx=0;entryDy=0;endArrow=none;endFill=0;" edge="1" parent="1" source="TaqGsP5J0sDB7Q5JTHYA-1" target="TaqGsP5J0sDB7Q5JTHYA-9">
          <mxGeometry relative="1" as="geometry" />
        </mxCell>
        <mxCell id="TaqGsP5J0sDB7Q5JTHYA-38" style="edgeStyle=none;rounded=0;orthogonalLoop=1;jettySize=auto;html=1;exitX=0.5;exitY=1;exitDx=0;exitDy=0;entryX=0.5;entryY=0;entryDx=0;entryDy=0;endArrow=none;endFill=0;" edge="1" parent="1" source="TaqGsP5J0sDB7Q5JTHYA-1" target="TaqGsP5J0sDB7Q5JTHYA-8">
          <mxGeometry relative="1" as="geometry" />
        </mxCell>
        <mxCell id="TaqGsP5J0sDB7Q5JTHYA-1" value="S" style="ellipse;whiteSpace=wrap;html=1;aspect=fixed;fontSize=30;fontFamily=Times New Roman;" vertex="1" parent="1">
          <mxGeometry x="270" width="60" height="60" as="geometry" />
        </mxCell>
        <mxCell id="TaqGsP5J0sDB7Q5JTHYA-2" value="d" style="ellipse;whiteSpace=wrap;html=1;aspect=fixed;fontSize=30;fontFamily=Times New Roman;" vertex="1" parent="1">
          <mxGeometry x="1" y="120" width="60" height="60" as="geometry" />
        </mxCell>
        <mxCell id="TaqGsP5J0sDB7Q5JTHYA-57" style="edgeStyle=none;rounded=0;orthogonalLoop=1;jettySize=auto;html=1;exitX=0.5;exitY=1;exitDx=0;exitDy=0;entryX=0.5;entryY=0;entryDx=0;entryDy=0;endArrow=none;endFill=0;" edge="1" parent="1" source="TaqGsP5J0sDB7Q5JTHYA-3" target="TaqGsP5J0sDB7Q5JTHYA-56">
          <mxGeometry relative="1" as="geometry" />
        </mxCell>
        <mxCell id="TaqGsP5J0sDB7Q5JTHYA-58" style="edgeStyle=none;rounded=0;orthogonalLoop=1;jettySize=auto;html=1;exitX=0.5;exitY=1;exitDx=0;exitDy=0;entryX=0.5;entryY=0;entryDx=0;entryDy=0;endArrow=none;endFill=0;" edge="1" parent="1" source="TaqGsP5J0sDB7Q5JTHYA-3" target="TaqGsP5J0sDB7Q5JTHYA-55">
          <mxGeometry relative="1" as="geometry" />
        </mxCell>
        <mxCell id="TaqGsP5J0sDB7Q5JTHYA-59" style="edgeStyle=none;rounded=0;orthogonalLoop=1;jettySize=auto;html=1;exitX=0.5;exitY=1;exitDx=0;exitDy=0;entryX=0.5;entryY=0;entryDx=0;entryDy=0;endArrow=none;endFill=0;" edge="1" parent="1" source="TaqGsP5J0sDB7Q5JTHYA-3" target="TaqGsP5J0sDB7Q5JTHYA-53">
          <mxGeometry relative="1" as="geometry" />
        </mxCell>
        <mxCell id="TaqGsP5J0sDB7Q5JTHYA-60" style="edgeStyle=none;rounded=0;orthogonalLoop=1;jettySize=auto;html=1;exitX=0.5;exitY=1;exitDx=0;exitDy=0;entryX=0.5;entryY=0;entryDx=0;entryDy=0;endArrow=none;endFill=0;" edge="1" parent="1" source="TaqGsP5J0sDB7Q5JTHYA-3" target="TaqGsP5J0sDB7Q5JTHYA-54">
          <mxGeometry relative="1" as="geometry" />
        </mxCell>
        <mxCell id="TaqGsP5J0sDB7Q5JTHYA-3" value="F" style="ellipse;whiteSpace=wrap;html=1;aspect=fixed;fontSize=30;fontFamily=Times New Roman;" vertex="1" parent="1">
          <mxGeometry x="240" y="120" width="60" height="60" as="geometry" />
        </mxCell>
        <mxCell id="TaqGsP5J0sDB7Q5JTHYA-4" value="(" style="ellipse;whiteSpace=wrap;html=1;aspect=fixed;fontSize=30;fontFamily=Times New Roman;" vertex="1" parent="1">
          <mxGeometry x="180" y="120" width="60" height="60" as="geometry" />
        </mxCell>
        <mxCell id="TaqGsP5J0sDB7Q5JTHYA-5" value="i" style="ellipse;whiteSpace=wrap;html=1;aspect=fixed;fontSize=30;fontFamily=Times New Roman;" vertex="1" parent="1">
          <mxGeometry x="120" y="120" width="60" height="60" as="geometry" />
        </mxCell>
        <mxCell id="TaqGsP5J0sDB7Q5JTHYA-6" value="f" style="ellipse;whiteSpace=wrap;html=1;aspect=fixed;fontSize=30;fontFamily=Times New Roman;" vertex="1" parent="1">
          <mxGeometry x="60" y="120" width="60" height="60" as="geometry" />
        </mxCell>
        <mxCell id="TaqGsP5J0sDB7Q5JTHYA-7" value=")" style="ellipse;whiteSpace=wrap;html=1;aspect=fixed;fontSize=30;fontFamily=Times New Roman;" vertex="1" parent="1">
          <mxGeometry x="300" y="120" width="60" height="60" as="geometry" />
        </mxCell>
        <mxCell id="TaqGsP5J0sDB7Q5JTHYA-8" value=";" style="ellipse;whiteSpace=wrap;html=1;aspect=fixed;fontSize=30;fontFamily=Times New Roman;" vertex="1" parent="1">
          <mxGeometry x="540" y="120" width="60" height="60" as="geometry" />
        </mxCell>
        <mxCell id="TaqGsP5J0sDB7Q5JTHYA-9" value="}" style="ellipse;whiteSpace=wrap;html=1;aspect=fixed;fontSize=30;fontFamily=Times New Roman;" vertex="1" parent="1">
          <mxGeometry x="480" y="120" width="60" height="60" as="geometry" />
        </mxCell>
        <mxCell id="TaqGsP5J0sDB7Q5JTHYA-72" style="edgeStyle=none;rounded=0;orthogonalLoop=1;jettySize=auto;html=1;exitX=0.5;exitY=1;exitDx=0;exitDy=0;entryX=0.5;entryY=0;entryDx=0;entryDy=0;endArrow=none;endFill=0;" edge="1" parent="1" source="TaqGsP5J0sDB7Q5JTHYA-10" target="TaqGsP5J0sDB7Q5JTHYA-66">
          <mxGeometry relative="1" as="geometry" />
        </mxCell>
        <mxCell id="TaqGsP5J0sDB7Q5JTHYA-73" style="edgeStyle=none;rounded=0;orthogonalLoop=1;jettySize=auto;html=1;exitX=0.5;exitY=1;exitDx=0;exitDy=0;entryX=0.5;entryY=0;entryDx=0;entryDy=0;endArrow=none;endFill=0;" edge="1" parent="1" source="TaqGsP5J0sDB7Q5JTHYA-10" target="TaqGsP5J0sDB7Q5JTHYA-65">
          <mxGeometry relative="1" as="geometry" />
        </mxCell>
        <mxCell id="TaqGsP5J0sDB7Q5JTHYA-74" style="edgeStyle=none;rounded=0;orthogonalLoop=1;jettySize=auto;html=1;exitX=0.5;exitY=1;exitDx=0;exitDy=0;entryX=0.5;entryY=0;entryDx=0;entryDy=0;endArrow=none;endFill=0;" edge="1" parent="1" source="TaqGsP5J0sDB7Q5JTHYA-10" target="TaqGsP5J0sDB7Q5JTHYA-67">
          <mxGeometry relative="1" as="geometry" />
        </mxCell>
        <mxCell id="TaqGsP5J0sDB7Q5JTHYA-75" style="edgeStyle=none;rounded=0;orthogonalLoop=1;jettySize=auto;html=1;exitX=0.5;exitY=1;exitDx=0;exitDy=0;entryX=0.5;entryY=0;entryDx=0;entryDy=0;endArrow=none;endFill=0;" edge="1" parent="1" source="TaqGsP5J0sDB7Q5JTHYA-10" target="TaqGsP5J0sDB7Q5JTHYA-68">
          <mxGeometry relative="1" as="geometry" />
        </mxCell>
        <mxCell id="TaqGsP5J0sDB7Q5JTHYA-76" style="edgeStyle=none;rounded=0;orthogonalLoop=1;jettySize=auto;html=1;exitX=0.5;exitY=1;exitDx=0;exitDy=0;entryX=0.5;entryY=0;entryDx=0;entryDy=0;endArrow=none;endFill=0;" edge="1" parent="1" source="TaqGsP5J0sDB7Q5JTHYA-10" target="TaqGsP5J0sDB7Q5JTHYA-69">
          <mxGeometry relative="1" as="geometry" />
        </mxCell>
        <mxCell id="TaqGsP5J0sDB7Q5JTHYA-77" style="edgeStyle=none;rounded=0;orthogonalLoop=1;jettySize=auto;html=1;exitX=0.5;exitY=1;exitDx=0;exitDy=0;entryX=0.5;entryY=0;entryDx=0;entryDy=0;endArrow=none;endFill=0;" edge="1" parent="1" source="TaqGsP5J0sDB7Q5JTHYA-10" target="TaqGsP5J0sDB7Q5JTHYA-70">
          <mxGeometry relative="1" as="geometry" />
        </mxCell>
        <mxCell id="TaqGsP5J0sDB7Q5JTHYA-78" style="edgeStyle=none;rounded=0;orthogonalLoop=1;jettySize=auto;html=1;exitX=0.5;exitY=1;exitDx=0;exitDy=0;entryX=0.5;entryY=0;entryDx=0;entryDy=0;endArrow=none;endFill=0;" edge="1" parent="1" source="TaqGsP5J0sDB7Q5JTHYA-10" target="TaqGsP5J0sDB7Q5JTHYA-71">
          <mxGeometry relative="1" as="geometry" />
        </mxCell>
        <mxCell id="TaqGsP5J0sDB7Q5JTHYA-10" value="N" style="ellipse;whiteSpace=wrap;html=1;aspect=fixed;fontSize=30;fontFamily=Times New Roman;" vertex="1" parent="1">
          <mxGeometry x="420" y="120" width="60" height="60" as="geometry" />
        </mxCell>
        <mxCell id="TaqGsP5J0sDB7Q5JTHYA-11" value="{" style="ellipse;whiteSpace=wrap;html=1;aspect=fixed;fontSize=30;fontFamily=Times New Roman;" vertex="1" parent="1">
          <mxGeometry x="360" y="120" width="60" height="60" as="geometry" />
        </mxCell>
        <mxCell id="TaqGsP5J0sDB7Q5JTHYA-42" style="edgeStyle=none;rounded=0;orthogonalLoop=1;jettySize=auto;html=1;exitX=0.5;exitY=1;exitDx=0;exitDy=0;entryX=0.5;entryY=0;entryDx=0;entryDy=0;endArrow=none;endFill=0;" edge="1" parent="1" source="TaqGsP5J0sDB7Q5JTHYA-13" target="TaqGsP5J0sDB7Q5JTHYA-14">
          <mxGeometry relative="1" as="geometry" />
        </mxCell>
        <mxCell id="TaqGsP5J0sDB7Q5JTHYA-43" style="edgeStyle=none;rounded=0;orthogonalLoop=1;jettySize=auto;html=1;exitX=0.5;exitY=1;exitDx=0;exitDy=0;entryX=0.5;entryY=0;entryDx=0;entryDy=0;endArrow=none;endFill=0;" edge="1" parent="1" source="TaqGsP5J0sDB7Q5JTHYA-13" target="TaqGsP5J0sDB7Q5JTHYA-18">
          <mxGeometry relative="1" as="geometry" />
        </mxCell>
        <mxCell id="TaqGsP5J0sDB7Q5JTHYA-44" style="edgeStyle=none;rounded=0;orthogonalLoop=1;jettySize=auto;html=1;exitX=0.5;exitY=1;exitDx=0;exitDy=0;entryX=0.5;entryY=0;entryDx=0;entryDy=0;endArrow=none;endFill=0;" edge="1" parent="1" source="TaqGsP5J0sDB7Q5JTHYA-13" target="TaqGsP5J0sDB7Q5JTHYA-17">
          <mxGeometry relative="1" as="geometry" />
        </mxCell>
        <mxCell id="TaqGsP5J0sDB7Q5JTHYA-45" style="edgeStyle=none;rounded=0;orthogonalLoop=1;jettySize=auto;html=1;exitX=0.5;exitY=1;exitDx=0;exitDy=0;entryX=0.5;entryY=0;entryDx=0;entryDy=0;endArrow=none;endFill=0;" edge="1" parent="1" source="TaqGsP5J0sDB7Q5JTHYA-13" target="TaqGsP5J0sDB7Q5JTHYA-16">
          <mxGeometry relative="1" as="geometry" />
        </mxCell>
        <mxCell id="TaqGsP5J0sDB7Q5JTHYA-46" style="edgeStyle=none;rounded=0;orthogonalLoop=1;jettySize=auto;html=1;exitX=0.5;exitY=1;exitDx=0;exitDy=0;entryX=0.5;entryY=0;entryDx=0;entryDy=0;endArrow=none;endFill=0;" edge="1" parent="1" source="TaqGsP5J0sDB7Q5JTHYA-13" target="TaqGsP5J0sDB7Q5JTHYA-15">
          <mxGeometry relative="1" as="geometry" />
        </mxCell>
        <mxCell id="TaqGsP5J0sDB7Q5JTHYA-47" style="edgeStyle=none;rounded=0;orthogonalLoop=1;jettySize=auto;html=1;exitX=0.5;exitY=1;exitDx=0;exitDy=0;entryX=0.5;entryY=0;entryDx=0;entryDy=0;endArrow=none;endFill=0;" edge="1" parent="1" source="TaqGsP5J0sDB7Q5JTHYA-13" target="TaqGsP5J0sDB7Q5JTHYA-19">
          <mxGeometry relative="1" as="geometry" />
        </mxCell>
        <mxCell id="TaqGsP5J0sDB7Q5JTHYA-48" style="edgeStyle=none;rounded=0;orthogonalLoop=1;jettySize=auto;html=1;exitX=0.5;exitY=1;exitDx=0;exitDy=0;entryX=0.5;entryY=0;entryDx=0;entryDy=0;endArrow=none;endFill=0;" edge="1" parent="1" source="TaqGsP5J0sDB7Q5JTHYA-13" target="TaqGsP5J0sDB7Q5JTHYA-23">
          <mxGeometry relative="1" as="geometry" />
        </mxCell>
        <mxCell id="TaqGsP5J0sDB7Q5JTHYA-49" style="edgeStyle=none;rounded=0;orthogonalLoop=1;jettySize=auto;html=1;exitX=0.5;exitY=1;exitDx=0;exitDy=0;entryX=0.5;entryY=0;entryDx=0;entryDy=0;endArrow=none;endFill=0;" edge="1" parent="1" source="TaqGsP5J0sDB7Q5JTHYA-13" target="TaqGsP5J0sDB7Q5JTHYA-22">
          <mxGeometry relative="1" as="geometry" />
        </mxCell>
        <mxCell id="TaqGsP5J0sDB7Q5JTHYA-50" style="edgeStyle=none;rounded=0;orthogonalLoop=1;jettySize=auto;html=1;exitX=0.5;exitY=1;exitDx=0;exitDy=0;entryX=0.5;entryY=0;entryDx=0;entryDy=0;endArrow=none;endFill=0;" edge="1" parent="1" source="TaqGsP5J0sDB7Q5JTHYA-13" target="TaqGsP5J0sDB7Q5JTHYA-21">
          <mxGeometry relative="1" as="geometry" />
        </mxCell>
        <mxCell id="TaqGsP5J0sDB7Q5JTHYA-51" style="edgeStyle=none;rounded=0;orthogonalLoop=1;jettySize=auto;html=1;exitX=0.5;exitY=1;exitDx=0;exitDy=0;entryX=0.5;entryY=0;entryDx=0;entryDy=0;endArrow=none;endFill=0;" edge="1" parent="1" source="TaqGsP5J0sDB7Q5JTHYA-13" target="TaqGsP5J0sDB7Q5JTHYA-20">
          <mxGeometry relative="1" as="geometry" />
        </mxCell>
        <mxCell id="TaqGsP5J0sDB7Q5JTHYA-52" style="edgeStyle=none;rounded=0;orthogonalLoop=1;jettySize=auto;html=1;exitX=0.5;exitY=1;exitDx=0;exitDy=0;entryX=0.5;entryY=0;entryDx=0;entryDy=0;endArrow=none;endFill=0;" edge="1" parent="1" source="TaqGsP5J0sDB7Q5JTHYA-13" target="TaqGsP5J0sDB7Q5JTHYA-24">
          <mxGeometry relative="1" as="geometry" />
        </mxCell>
        <mxCell id="TaqGsP5J0sDB7Q5JTHYA-13" value="S" style="ellipse;whiteSpace=wrap;html=1;aspect=fixed;fontSize=30;fontFamily=Times New Roman;" vertex="1" parent="1">
          <mxGeometry x="979" width="60" height="60" as="geometry" />
        </mxCell>
        <mxCell id="TaqGsP5J0sDB7Q5JTHYA-14" value="d" style="ellipse;whiteSpace=wrap;html=1;aspect=fixed;fontSize=30;fontFamily=Times New Roman;" vertex="1" parent="1">
          <mxGeometry x="680" y="120" width="60" height="60" as="geometry" />
        </mxCell>
        <mxCell id="TaqGsP5J0sDB7Q5JTHYA-108" style="edgeStyle=none;rounded=0;orthogonalLoop=1;jettySize=auto;html=1;exitX=0.5;exitY=1;exitDx=0;exitDy=0;entryX=0.5;entryY=0;entryDx=0;entryDy=0;endArrow=none;endFill=0;" edge="1" parent="1" source="TaqGsP5J0sDB7Q5JTHYA-15" target="TaqGsP5J0sDB7Q5JTHYA-107">
          <mxGeometry relative="1" as="geometry" />
        </mxCell>
        <mxCell id="TaqGsP5J0sDB7Q5JTHYA-109" style="edgeStyle=none;rounded=0;orthogonalLoop=1;jettySize=auto;html=1;exitX=0.5;exitY=1;exitDx=0;exitDy=0;entryX=0.5;entryY=0;entryDx=0;entryDy=0;endArrow=none;endFill=0;" edge="1" parent="1" source="TaqGsP5J0sDB7Q5JTHYA-15" target="TaqGsP5J0sDB7Q5JTHYA-106">
          <mxGeometry relative="1" as="geometry" />
        </mxCell>
        <mxCell id="TaqGsP5J0sDB7Q5JTHYA-15" value="F" style="ellipse;whiteSpace=wrap;html=1;aspect=fixed;fontSize=30;fontFamily=Times New Roman;" vertex="1" parent="1">
          <mxGeometry x="919" y="120" width="60" height="60" as="geometry" />
        </mxCell>
        <mxCell id="TaqGsP5J0sDB7Q5JTHYA-16" value="(" style="ellipse;whiteSpace=wrap;html=1;aspect=fixed;fontSize=30;fontFamily=Times New Roman;" vertex="1" parent="1">
          <mxGeometry x="859" y="120" width="60" height="60" as="geometry" />
        </mxCell>
        <mxCell id="TaqGsP5J0sDB7Q5JTHYA-17" value="i" style="ellipse;whiteSpace=wrap;html=1;aspect=fixed;fontSize=30;fontFamily=Times New Roman;" vertex="1" parent="1">
          <mxGeometry x="799" y="120" width="60" height="60" as="geometry" />
        </mxCell>
        <mxCell id="TaqGsP5J0sDB7Q5JTHYA-18" value="f" style="ellipse;whiteSpace=wrap;html=1;aspect=fixed;fontSize=30;fontFamily=Times New Roman;" vertex="1" parent="1">
          <mxGeometry x="739" y="120" width="60" height="60" as="geometry" />
        </mxCell>
        <mxCell id="TaqGsP5J0sDB7Q5JTHYA-19" value=")" style="ellipse;whiteSpace=wrap;html=1;aspect=fixed;fontSize=30;fontFamily=Times New Roman;" vertex="1" parent="1">
          <mxGeometry x="979" y="120" width="60" height="60" as="geometry" />
        </mxCell>
        <mxCell id="TaqGsP5J0sDB7Q5JTHYA-121" style="edgeStyle=none;rounded=0;orthogonalLoop=1;jettySize=auto;html=1;exitX=0.5;exitY=1;exitDx=0;exitDy=0;entryX=0.5;entryY=0;entryDx=0;entryDy=0;endArrow=none;endFill=0;" edge="1" parent="1" source="TaqGsP5J0sDB7Q5JTHYA-20" target="TaqGsP5J0sDB7Q5JTHYA-115">
          <mxGeometry relative="1" as="geometry" />
        </mxCell>
        <mxCell id="TaqGsP5J0sDB7Q5JTHYA-122" style="edgeStyle=none;rounded=0;orthogonalLoop=1;jettySize=auto;html=1;exitX=0.5;exitY=1;exitDx=0;exitDy=0;entryX=0.5;entryY=0;entryDx=0;entryDy=0;endArrow=none;endFill=0;" edge="1" parent="1" source="TaqGsP5J0sDB7Q5JTHYA-20" target="TaqGsP5J0sDB7Q5JTHYA-116">
          <mxGeometry relative="1" as="geometry" />
        </mxCell>
        <mxCell id="TaqGsP5J0sDB7Q5JTHYA-123" style="edgeStyle=none;rounded=0;orthogonalLoop=1;jettySize=auto;html=1;exitX=0.5;exitY=1;exitDx=0;exitDy=0;entryX=0.5;entryY=0;entryDx=0;entryDy=0;endArrow=none;endFill=0;" edge="1" parent="1" source="TaqGsP5J0sDB7Q5JTHYA-20" target="TaqGsP5J0sDB7Q5JTHYA-117">
          <mxGeometry relative="1" as="geometry" />
        </mxCell>
        <mxCell id="TaqGsP5J0sDB7Q5JTHYA-125" style="edgeStyle=none;rounded=0;orthogonalLoop=1;jettySize=auto;html=1;exitX=0.5;exitY=1;exitDx=0;exitDy=0;entryX=0.5;entryY=0;entryDx=0;entryDy=0;endArrow=none;endFill=0;" edge="1" parent="1" source="TaqGsP5J0sDB7Q5JTHYA-20" target="TaqGsP5J0sDB7Q5JTHYA-118">
          <mxGeometry relative="1" as="geometry" />
        </mxCell>
        <mxCell id="TaqGsP5J0sDB7Q5JTHYA-20" value=";" style="ellipse;whiteSpace=wrap;html=1;aspect=fixed;fontSize=30;fontFamily=Times New Roman;" vertex="1" parent="1">
          <mxGeometry x="1219" y="120" width="60" height="60" as="geometry" />
        </mxCell>
        <mxCell id="TaqGsP5J0sDB7Q5JTHYA-21" value="}" style="ellipse;whiteSpace=wrap;html=1;aspect=fixed;fontSize=30;fontFamily=Times New Roman;" vertex="1" parent="1">
          <mxGeometry x="1159" y="120" width="60" height="60" as="geometry" />
        </mxCell>
        <mxCell id="TaqGsP5J0sDB7Q5JTHYA-113" style="edgeStyle=none;rounded=0;orthogonalLoop=1;jettySize=auto;html=1;exitX=0.5;exitY=1;exitDx=0;exitDy=0;entryX=0.5;entryY=0;entryDx=0;entryDy=0;endArrow=none;endFill=0;" edge="1" parent="1" source="TaqGsP5J0sDB7Q5JTHYA-22" target="TaqGsP5J0sDB7Q5JTHYA-111">
          <mxGeometry relative="1" as="geometry" />
        </mxCell>
        <mxCell id="TaqGsP5J0sDB7Q5JTHYA-114" style="edgeStyle=none;rounded=0;orthogonalLoop=1;jettySize=auto;html=1;exitX=0.5;exitY=1;exitDx=0;exitDy=0;entryX=0.5;entryY=0;entryDx=0;entryDy=0;endArrow=none;endFill=0;" edge="1" parent="1" source="TaqGsP5J0sDB7Q5JTHYA-22" target="TaqGsP5J0sDB7Q5JTHYA-112">
          <mxGeometry relative="1" as="geometry" />
        </mxCell>
        <mxCell id="TaqGsP5J0sDB7Q5JTHYA-22" value="N" style="ellipse;whiteSpace=wrap;html=1;aspect=fixed;fontSize=30;fontFamily=Times New Roman;" vertex="1" parent="1">
          <mxGeometry x="1099" y="120" width="60" height="60" as="geometry" />
        </mxCell>
        <mxCell id="TaqGsP5J0sDB7Q5JTHYA-23" value="{" style="ellipse;whiteSpace=wrap;html=1;aspect=fixed;fontSize=30;fontFamily=Times New Roman;" vertex="1" parent="1">
          <mxGeometry x="1039" y="120" width="60" height="60" as="geometry" />
        </mxCell>
        <mxCell id="TaqGsP5J0sDB7Q5JTHYA-24" value="S" style="ellipse;whiteSpace=wrap;html=1;aspect=fixed;fontSize=30;fontFamily=Times New Roman;" vertex="1" parent="1">
          <mxGeometry x="1279" y="120" width="60" height="60" as="geometry" />
        </mxCell>
        <mxCell id="TaqGsP5J0sDB7Q5JTHYA-25" value="" style="endArrow=none;html=1;rounded=0;exitX=1;exitY=0.5;exitDx=0;exitDy=0;entryX=0;entryY=0.5;entryDx=0;entryDy=0;" edge="1" parent="1" source="TaqGsP5J0sDB7Q5JTHYA-1" target="TaqGsP5J0sDB7Q5JTHYA-13">
          <mxGeometry width="50" height="50" relative="1" as="geometry">
            <mxPoint x="490" y="40" as="sourcePoint" />
            <mxPoint x="540" y="-10" as="targetPoint" />
          </mxGeometry>
        </mxCell>
        <mxCell id="TaqGsP5J0sDB7Q5JTHYA-53" value="i" style="ellipse;whiteSpace=wrap;html=1;aspect=fixed;fontSize=30;fontFamily=Times New Roman;" vertex="1" parent="1">
          <mxGeometry x="120" y="240" width="60" height="60" as="geometry" />
        </mxCell>
        <mxCell id="TaqGsP5J0sDB7Q5JTHYA-54" value="d" style="ellipse;whiteSpace=wrap;html=1;aspect=fixed;fontSize=30;fontFamily=Times New Roman;" vertex="1" parent="1">
          <mxGeometry x="60" y="240" width="60" height="60" as="geometry" />
        </mxCell>
        <mxCell id="TaqGsP5J0sDB7Q5JTHYA-55" value="," style="ellipse;whiteSpace=wrap;html=1;aspect=fixed;fontSize=30;fontFamily=Times New Roman;" vertex="1" parent="1">
          <mxGeometry x="180" y="240" width="60" height="60" as="geometry" />
        </mxCell>
        <mxCell id="TaqGsP5J0sDB7Q5JTHYA-63" style="edgeStyle=none;rounded=0;orthogonalLoop=1;jettySize=auto;html=1;exitX=0.5;exitY=1;exitDx=0;exitDy=0;entryX=0.5;entryY=0;entryDx=0;entryDy=0;endArrow=none;endFill=0;" edge="1" parent="1" source="TaqGsP5J0sDB7Q5JTHYA-56" target="TaqGsP5J0sDB7Q5JTHYA-61">
          <mxGeometry relative="1" as="geometry" />
        </mxCell>
        <mxCell id="TaqGsP5J0sDB7Q5JTHYA-64" style="edgeStyle=none;rounded=0;orthogonalLoop=1;jettySize=auto;html=1;exitX=0.5;exitY=1;exitDx=0;exitDy=0;entryX=0.5;entryY=0;entryDx=0;entryDy=0;endArrow=none;endFill=0;" edge="1" parent="1" source="TaqGsP5J0sDB7Q5JTHYA-56" target="TaqGsP5J0sDB7Q5JTHYA-62">
          <mxGeometry relative="1" as="geometry" />
        </mxCell>
        <mxCell id="TaqGsP5J0sDB7Q5JTHYA-56" value="F" style="ellipse;whiteSpace=wrap;html=1;aspect=fixed;fontSize=30;fontFamily=Times New Roman;" vertex="1" parent="1">
          <mxGeometry x="240" y="240" width="60" height="60" as="geometry" />
        </mxCell>
        <mxCell id="TaqGsP5J0sDB7Q5JTHYA-61" value="i" style="ellipse;whiteSpace=wrap;html=1;aspect=fixed;fontSize=30;fontFamily=Times New Roman;" vertex="1" parent="1">
          <mxGeometry x="240" y="360" width="60" height="60" as="geometry" />
        </mxCell>
        <mxCell id="TaqGsP5J0sDB7Q5JTHYA-62" value="d" style="ellipse;whiteSpace=wrap;html=1;aspect=fixed;fontSize=30;fontFamily=Times New Roman;" vertex="1" parent="1">
          <mxGeometry x="180" y="360" width="60" height="60" as="geometry" />
        </mxCell>
        <mxCell id="TaqGsP5J0sDB7Q5JTHYA-80" style="edgeStyle=none;rounded=0;orthogonalLoop=1;jettySize=auto;html=1;exitX=0.5;exitY=1;exitDx=0;exitDy=0;entryX=0.5;entryY=0;entryDx=0;entryDy=0;endArrow=none;endFill=0;" edge="1" parent="1" source="TaqGsP5J0sDB7Q5JTHYA-65" target="TaqGsP5J0sDB7Q5JTHYA-79">
          <mxGeometry relative="1" as="geometry" />
        </mxCell>
        <mxCell id="TaqGsP5J0sDB7Q5JTHYA-65" value="T" style="ellipse;whiteSpace=wrap;html=1;aspect=fixed;fontSize=30;fontFamily=Times New Roman;" vertex="1" parent="1">
          <mxGeometry x="390" y="240" width="60" height="60" as="geometry" />
        </mxCell>
        <mxCell id="TaqGsP5J0sDB7Q5JTHYA-66" value="n" style="ellipse;whiteSpace=wrap;html=1;aspect=fixed;fontSize=30;fontFamily=Times New Roman;" vertex="1" parent="1">
          <mxGeometry x="330" y="240" width="60" height="60" as="geometry" />
        </mxCell>
        <mxCell id="TaqGsP5J0sDB7Q5JTHYA-67" value="i" style="ellipse;whiteSpace=wrap;html=1;aspect=fixed;fontSize=30;fontFamily=Times New Roman;" vertex="1" parent="1">
          <mxGeometry x="450" y="240" width="60" height="60" as="geometry" />
        </mxCell>
        <mxCell id="TaqGsP5J0sDB7Q5JTHYA-68" value="=" style="ellipse;whiteSpace=wrap;html=1;aspect=fixed;fontSize=30;fontFamily=Times New Roman;" vertex="1" parent="1">
          <mxGeometry x="510" y="240" width="60" height="60" as="geometry" />
        </mxCell>
        <mxCell id="TaqGsP5J0sDB7Q5JTHYA-82" style="edgeStyle=none;rounded=0;orthogonalLoop=1;jettySize=auto;html=1;exitX=0.5;exitY=1;exitDx=0;exitDy=0;entryX=0.5;entryY=0;entryDx=0;entryDy=0;endArrow=none;endFill=0;" edge="1" parent="1" source="TaqGsP5J0sDB7Q5JTHYA-69" target="TaqGsP5J0sDB7Q5JTHYA-81">
          <mxGeometry relative="1" as="geometry" />
        </mxCell>
        <mxCell id="TaqGsP5J0sDB7Q5JTHYA-69" value="E" style="ellipse;whiteSpace=wrap;html=1;aspect=fixed;fontSize=30;fontFamily=Times New Roman;" vertex="1" parent="1">
          <mxGeometry x="570" y="240" width="60" height="60" as="geometry" />
        </mxCell>
        <mxCell id="TaqGsP5J0sDB7Q5JTHYA-70" value=";" style="ellipse;whiteSpace=wrap;html=1;aspect=fixed;fontSize=30;fontFamily=Times New Roman;" vertex="1" parent="1">
          <mxGeometry x="630" y="240" width="60" height="60" as="geometry" />
        </mxCell>
        <mxCell id="TaqGsP5J0sDB7Q5JTHYA-96" style="edgeStyle=none;rounded=0;orthogonalLoop=1;jettySize=auto;html=1;exitX=0.5;exitY=1;exitDx=0;exitDy=0;entryX=0.5;entryY=0;entryDx=0;entryDy=0;endArrow=none;endFill=0;" edge="1" parent="1" source="TaqGsP5J0sDB7Q5JTHYA-71" target="TaqGsP5J0sDB7Q5JTHYA-88">
          <mxGeometry relative="1" as="geometry" />
        </mxCell>
        <mxCell id="TaqGsP5J0sDB7Q5JTHYA-97" style="edgeStyle=none;rounded=0;orthogonalLoop=1;jettySize=auto;html=1;exitX=0.5;exitY=1;exitDx=0;exitDy=0;entryX=0.5;entryY=0;entryDx=0;entryDy=0;endArrow=none;endFill=0;" edge="1" parent="1" source="TaqGsP5J0sDB7Q5JTHYA-71" target="TaqGsP5J0sDB7Q5JTHYA-86">
          <mxGeometry relative="1" as="geometry" />
        </mxCell>
        <mxCell id="TaqGsP5J0sDB7Q5JTHYA-98" style="edgeStyle=none;rounded=0;orthogonalLoop=1;jettySize=auto;html=1;exitX=0.5;exitY=1;exitDx=0;exitDy=0;entryX=0.5;entryY=0;entryDx=0;entryDy=0;endArrow=none;endFill=0;" edge="1" parent="1" source="TaqGsP5J0sDB7Q5JTHYA-71" target="TaqGsP5J0sDB7Q5JTHYA-84">
          <mxGeometry relative="1" as="geometry" />
        </mxCell>
        <mxCell id="TaqGsP5J0sDB7Q5JTHYA-99" style="edgeStyle=none;rounded=0;orthogonalLoop=1;jettySize=auto;html=1;exitX=0.5;exitY=1;exitDx=0;exitDy=0;entryX=0.5;entryY=0;entryDx=0;entryDy=0;endArrow=none;endFill=0;" edge="1" parent="1" source="TaqGsP5J0sDB7Q5JTHYA-71" target="TaqGsP5J0sDB7Q5JTHYA-90">
          <mxGeometry relative="1" as="geometry" />
        </mxCell>
        <mxCell id="TaqGsP5J0sDB7Q5JTHYA-100" style="edgeStyle=none;rounded=0;orthogonalLoop=1;jettySize=auto;html=1;exitX=0.5;exitY=1;exitDx=0;exitDy=0;entryX=0.5;entryY=0;entryDx=0;entryDy=0;endArrow=none;endFill=0;" edge="1" parent="1" source="TaqGsP5J0sDB7Q5JTHYA-71" target="TaqGsP5J0sDB7Q5JTHYA-89">
          <mxGeometry relative="1" as="geometry" />
        </mxCell>
        <mxCell id="TaqGsP5J0sDB7Q5JTHYA-101" style="edgeStyle=none;rounded=0;orthogonalLoop=1;jettySize=auto;html=1;exitX=0.5;exitY=1;exitDx=0;exitDy=0;entryX=0.5;entryY=0;entryDx=0;entryDy=0;endArrow=none;endFill=0;" edge="1" parent="1" source="TaqGsP5J0sDB7Q5JTHYA-71" target="TaqGsP5J0sDB7Q5JTHYA-93">
          <mxGeometry relative="1" as="geometry" />
        </mxCell>
        <mxCell id="TaqGsP5J0sDB7Q5JTHYA-102" style="edgeStyle=none;rounded=0;orthogonalLoop=1;jettySize=auto;html=1;exitX=0.5;exitY=1;exitDx=0;exitDy=0;entryX=0.5;entryY=0;entryDx=0;entryDy=0;endArrow=none;endFill=0;" edge="1" parent="1" source="TaqGsP5J0sDB7Q5JTHYA-71" target="TaqGsP5J0sDB7Q5JTHYA-92">
          <mxGeometry relative="1" as="geometry" />
        </mxCell>
        <mxCell id="TaqGsP5J0sDB7Q5JTHYA-103" style="edgeStyle=none;rounded=0;orthogonalLoop=1;jettySize=auto;html=1;exitX=0.5;exitY=1;exitDx=0;exitDy=0;entryX=0.5;entryY=0;entryDx=0;entryDy=0;endArrow=none;endFill=0;" edge="1" parent="1" source="TaqGsP5J0sDB7Q5JTHYA-71" target="TaqGsP5J0sDB7Q5JTHYA-91">
          <mxGeometry relative="1" as="geometry" />
        </mxCell>
        <mxCell id="TaqGsP5J0sDB7Q5JTHYA-104" style="edgeStyle=none;rounded=0;orthogonalLoop=1;jettySize=auto;html=1;exitX=0.5;exitY=1;exitDx=0;exitDy=0;entryX=0.5;entryY=0;entryDx=0;entryDy=0;endArrow=none;endFill=0;" edge="1" parent="1" source="TaqGsP5J0sDB7Q5JTHYA-71" target="TaqGsP5J0sDB7Q5JTHYA-95">
          <mxGeometry relative="1" as="geometry" />
        </mxCell>
        <mxCell id="TaqGsP5J0sDB7Q5JTHYA-105" style="edgeStyle=none;rounded=0;orthogonalLoop=1;jettySize=auto;html=1;exitX=0.5;exitY=1;exitDx=0;exitDy=0;entryX=0.5;entryY=0;entryDx=0;entryDy=0;endArrow=none;endFill=0;" edge="1" parent="1" source="TaqGsP5J0sDB7Q5JTHYA-71" target="TaqGsP5J0sDB7Q5JTHYA-94">
          <mxGeometry relative="1" as="geometry" />
        </mxCell>
        <mxCell id="TaqGsP5J0sDB7Q5JTHYA-71" value="N" style="ellipse;whiteSpace=wrap;html=1;aspect=fixed;fontSize=30;fontFamily=Times New Roman;" vertex="1" parent="1">
          <mxGeometry x="690" y="240" width="60" height="60" as="geometry" />
        </mxCell>
        <mxCell id="TaqGsP5J0sDB7Q5JTHYA-79" value="d" style="ellipse;whiteSpace=wrap;html=1;aspect=fixed;fontSize=30;fontFamily=Times New Roman;" vertex="1" parent="1">
          <mxGeometry x="330" y="360" width="60" height="60" as="geometry" />
        </mxCell>
        <mxCell id="TaqGsP5J0sDB7Q5JTHYA-81" value="i" style="ellipse;whiteSpace=wrap;html=1;aspect=fixed;fontSize=30;fontFamily=Times New Roman;" vertex="1" parent="1">
          <mxGeometry x="420" y="360" width="60" height="60" as="geometry" />
        </mxCell>
        <mxCell id="TaqGsP5J0sDB7Q5JTHYA-84" value="{" style="ellipse;whiteSpace=wrap;html=1;aspect=fixed;fontSize=30;fontFamily=Times New Roman;" vertex="1" parent="1">
          <mxGeometry x="630" y="360" width="60" height="60" as="geometry" />
        </mxCell>
        <mxCell id="TaqGsP5J0sDB7Q5JTHYA-148" style="edgeStyle=none;rounded=0;orthogonalLoop=1;jettySize=auto;html=1;exitX=0.5;exitY=1;exitDx=0;exitDy=0;entryX=0.5;entryY=0;entryDx=0;entryDy=0;endArrow=none;endFill=0;" edge="1" parent="1" source="TaqGsP5J0sDB7Q5JTHYA-86" target="TaqGsP5J0sDB7Q5JTHYA-147">
          <mxGeometry relative="1" as="geometry" />
        </mxCell>
        <mxCell id="TaqGsP5J0sDB7Q5JTHYA-149" style="edgeStyle=none;rounded=0;orthogonalLoop=1;jettySize=auto;html=1;exitX=0.5;exitY=1;exitDx=0;exitDy=0;entryX=0.5;entryY=0;entryDx=0;entryDy=0;endArrow=none;endFill=0;" edge="1" parent="1" source="TaqGsP5J0sDB7Q5JTHYA-86" target="TaqGsP5J0sDB7Q5JTHYA-146">
          <mxGeometry relative="1" as="geometry" />
        </mxCell>
        <mxCell id="TaqGsP5J0sDB7Q5JTHYA-150" style="edgeStyle=none;rounded=0;orthogonalLoop=1;jettySize=auto;html=1;exitX=0.5;exitY=1;exitDx=0;exitDy=0;entryX=0.5;entryY=0;entryDx=0;entryDy=0;endArrow=none;endFill=0;" edge="1" parent="1" source="TaqGsP5J0sDB7Q5JTHYA-86" target="TaqGsP5J0sDB7Q5JTHYA-145">
          <mxGeometry relative="1" as="geometry" />
        </mxCell>
        <mxCell id="TaqGsP5J0sDB7Q5JTHYA-151" style="edgeStyle=none;rounded=0;orthogonalLoop=1;jettySize=auto;html=1;exitX=0.5;exitY=1;exitDx=0;exitDy=0;entryX=0.5;entryY=0;entryDx=0;entryDy=0;endArrow=none;endFill=0;" edge="1" parent="1" source="TaqGsP5J0sDB7Q5JTHYA-86" target="TaqGsP5J0sDB7Q5JTHYA-144">
          <mxGeometry relative="1" as="geometry" />
        </mxCell>
        <mxCell id="TaqGsP5J0sDB7Q5JTHYA-152" style="edgeStyle=none;rounded=0;orthogonalLoop=1;jettySize=auto;html=1;exitX=0.5;exitY=1;exitDx=0;exitDy=0;entryX=0.5;entryY=0;entryDx=0;entryDy=0;endArrow=none;endFill=0;" edge="1" parent="1" source="TaqGsP5J0sDB7Q5JTHYA-86" target="TaqGsP5J0sDB7Q5JTHYA-143">
          <mxGeometry relative="1" as="geometry" />
        </mxCell>
        <mxCell id="TaqGsP5J0sDB7Q5JTHYA-86" value="Q" style="ellipse;whiteSpace=wrap;html=1;aspect=fixed;fontSize=30;fontFamily=Times New Roman;" vertex="1" parent="1">
          <mxGeometry x="570" y="360" width="60" height="60" as="geometry" />
        </mxCell>
        <mxCell id="TaqGsP5J0sDB7Q5JTHYA-87" style="edgeStyle=none;rounded=0;orthogonalLoop=1;jettySize=auto;html=1;exitX=0;exitY=0.5;exitDx=0;exitDy=0;endArrow=none;endFill=0;" edge="1" parent="1">
          <mxGeometry relative="1" as="geometry">
            <mxPoint x="540" y="390" as="sourcePoint" />
            <mxPoint x="540" y="390" as="targetPoint" />
          </mxGeometry>
        </mxCell>
        <mxCell id="TaqGsP5J0sDB7Q5JTHYA-88" value="c" style="ellipse;whiteSpace=wrap;html=1;aspect=fixed;fontSize=30;fontFamily=Times New Roman;" vertex="1" parent="1">
          <mxGeometry x="510" y="360" width="60" height="60" as="geometry" />
        </mxCell>
        <mxCell id="TaqGsP5J0sDB7Q5JTHYA-89" value="}" style="ellipse;whiteSpace=wrap;html=1;aspect=fixed;fontSize=30;fontFamily=Times New Roman;" vertex="1" parent="1">
          <mxGeometry x="750" y="360" width="60" height="60" as="geometry" />
        </mxCell>
        <mxCell id="TaqGsP5J0sDB7Q5JTHYA-156" style="edgeStyle=none;rounded=0;orthogonalLoop=1;jettySize=auto;html=1;exitX=0.5;exitY=1;exitDx=0;exitDy=0;entryX=0.5;entryY=0;entryDx=0;entryDy=0;endArrow=none;endFill=0;" edge="1" parent="1" source="TaqGsP5J0sDB7Q5JTHYA-90" target="TaqGsP5J0sDB7Q5JTHYA-153">
          <mxGeometry relative="1" as="geometry" />
        </mxCell>
        <mxCell id="TaqGsP5J0sDB7Q5JTHYA-157" style="edgeStyle=none;rounded=0;orthogonalLoop=1;jettySize=auto;html=1;exitX=0.5;exitY=1;exitDx=0;exitDy=0;entryX=0.5;entryY=0;entryDx=0;entryDy=0;endArrow=none;endFill=0;" edge="1" parent="1" source="TaqGsP5J0sDB7Q5JTHYA-90" target="TaqGsP5J0sDB7Q5JTHYA-154">
          <mxGeometry relative="1" as="geometry" />
        </mxCell>
        <mxCell id="TaqGsP5J0sDB7Q5JTHYA-158" style="edgeStyle=none;rounded=0;orthogonalLoop=1;jettySize=auto;html=1;exitX=0.5;exitY=1;exitDx=0;exitDy=0;entryX=0.5;entryY=0;entryDx=0;entryDy=0;endArrow=none;endFill=0;" edge="1" parent="1" source="TaqGsP5J0sDB7Q5JTHYA-90" target="TaqGsP5J0sDB7Q5JTHYA-155">
          <mxGeometry relative="1" as="geometry" />
        </mxCell>
        <mxCell id="TaqGsP5J0sDB7Q5JTHYA-160" style="edgeStyle=none;rounded=0;orthogonalLoop=1;jettySize=auto;html=1;exitX=0.5;exitY=1;exitDx=0;exitDy=0;entryX=0.5;entryY=0;entryDx=0;entryDy=0;endArrow=none;endFill=0;" edge="1" parent="1" source="TaqGsP5J0sDB7Q5JTHYA-90" target="TaqGsP5J0sDB7Q5JTHYA-159">
          <mxGeometry relative="1" as="geometry" />
        </mxCell>
        <mxCell id="TaqGsP5J0sDB7Q5JTHYA-90" value="N" style="ellipse;whiteSpace=wrap;html=1;aspect=fixed;fontSize=30;fontFamily=Times New Roman;" vertex="1" parent="1">
          <mxGeometry x="690" y="360" width="60" height="60" as="geometry" />
        </mxCell>
        <mxCell id="TaqGsP5J0sDB7Q5JTHYA-169" style="edgeStyle=none;rounded=0;orthogonalLoop=1;jettySize=auto;html=1;exitX=0.5;exitY=1;exitDx=0;exitDy=0;entryX=0.5;entryY=0;entryDx=0;entryDy=0;endArrow=none;endFill=0;" edge="1" parent="1" source="TaqGsP5J0sDB7Q5JTHYA-91" target="TaqGsP5J0sDB7Q5JTHYA-163">
          <mxGeometry relative="1" as="geometry" />
        </mxCell>
        <mxCell id="TaqGsP5J0sDB7Q5JTHYA-170" style="edgeStyle=none;rounded=0;orthogonalLoop=1;jettySize=auto;html=1;exitX=0.5;exitY=1;exitDx=0;exitDy=0;entryX=0.5;entryY=0;entryDx=0;entryDy=0;endArrow=none;endFill=0;" edge="1" parent="1" source="TaqGsP5J0sDB7Q5JTHYA-91" target="TaqGsP5J0sDB7Q5JTHYA-164">
          <mxGeometry relative="1" as="geometry" />
        </mxCell>
        <mxCell id="TaqGsP5J0sDB7Q5JTHYA-171" style="edgeStyle=none;rounded=0;orthogonalLoop=1;jettySize=auto;html=1;exitX=0.5;exitY=1;exitDx=0;exitDy=0;entryX=0.5;entryY=0;entryDx=0;entryDy=0;endArrow=none;endFill=0;" edge="1" parent="1" source="TaqGsP5J0sDB7Q5JTHYA-91" target="TaqGsP5J0sDB7Q5JTHYA-165">
          <mxGeometry relative="1" as="geometry" />
        </mxCell>
        <mxCell id="TaqGsP5J0sDB7Q5JTHYA-172" style="edgeStyle=none;rounded=0;orthogonalLoop=1;jettySize=auto;html=1;exitX=0.5;exitY=1;exitDx=0;exitDy=0;entryX=0.5;entryY=0;entryDx=0;entryDy=0;endArrow=none;endFill=0;" edge="1" parent="1" source="TaqGsP5J0sDB7Q5JTHYA-91" target="TaqGsP5J0sDB7Q5JTHYA-166">
          <mxGeometry relative="1" as="geometry" />
        </mxCell>
        <mxCell id="TaqGsP5J0sDB7Q5JTHYA-91" value="N" style="ellipse;whiteSpace=wrap;html=1;aspect=fixed;fontSize=30;fontFamily=Times New Roman;" vertex="1" parent="1">
          <mxGeometry x="930" y="360" width="60" height="60" as="geometry" />
        </mxCell>
        <mxCell id="TaqGsP5J0sDB7Q5JTHYA-92" value="{" style="ellipse;whiteSpace=wrap;html=1;aspect=fixed;fontSize=30;fontFamily=Times New Roman;" vertex="1" parent="1">
          <mxGeometry x="870" y="360" width="60" height="60" as="geometry" />
        </mxCell>
        <mxCell id="TaqGsP5J0sDB7Q5JTHYA-93" value="e" style="ellipse;whiteSpace=wrap;html=1;aspect=fixed;fontSize=30;fontFamily=Times New Roman;" vertex="1" parent="1">
          <mxGeometry x="810" y="360" width="60" height="60" as="geometry" />
        </mxCell>
        <mxCell id="TaqGsP5J0sDB7Q5JTHYA-173" style="edgeStyle=none;rounded=0;orthogonalLoop=1;jettySize=auto;html=1;exitX=0.5;exitY=1;exitDx=0;exitDy=0;entryX=0.5;entryY=0;entryDx=0;entryDy=0;endArrow=none;endFill=0;" edge="1" parent="1" source="TaqGsP5J0sDB7Q5JTHYA-94" target="TaqGsP5J0sDB7Q5JTHYA-167">
          <mxGeometry relative="1" as="geometry" />
        </mxCell>
        <mxCell id="TaqGsP5J0sDB7Q5JTHYA-174" style="edgeStyle=none;rounded=0;orthogonalLoop=1;jettySize=auto;html=1;exitX=0.5;exitY=1;exitDx=0;exitDy=0;entryX=0.5;entryY=0;entryDx=0;entryDy=0;endArrow=none;endFill=0;" edge="1" parent="1" source="TaqGsP5J0sDB7Q5JTHYA-94" target="TaqGsP5J0sDB7Q5JTHYA-168">
          <mxGeometry relative="1" as="geometry" />
        </mxCell>
        <mxCell id="TaqGsP5J0sDB7Q5JTHYA-94" value="N" style="ellipse;whiteSpace=wrap;html=1;aspect=fixed;fontSize=30;fontFamily=Times New Roman;" vertex="1" parent="1">
          <mxGeometry x="1050" y="360" width="60" height="60" as="geometry" />
        </mxCell>
        <mxCell id="TaqGsP5J0sDB7Q5JTHYA-95" value="}" style="ellipse;whiteSpace=wrap;html=1;aspect=fixed;fontSize=30;fontFamily=Times New Roman;" vertex="1" parent="1">
          <mxGeometry x="990" y="360" width="60" height="60" as="geometry" />
        </mxCell>
        <mxCell id="TaqGsP5J0sDB7Q5JTHYA-106" value="s" style="ellipse;whiteSpace=wrap;html=1;aspect=fixed;fontSize=30;fontFamily=Times New Roman;" vertex="1" parent="1">
          <mxGeometry x="780" y="240" width="60" height="60" as="geometry" />
        </mxCell>
        <mxCell id="TaqGsP5J0sDB7Q5JTHYA-107" value="i" style="ellipse;whiteSpace=wrap;html=1;aspect=fixed;fontSize=30;fontFamily=Times New Roman;" vertex="1" parent="1">
          <mxGeometry x="840" y="240" width="60" height="60" as="geometry" />
        </mxCell>
        <mxCell id="TaqGsP5J0sDB7Q5JTHYA-111" value="r" style="ellipse;whiteSpace=wrap;html=1;aspect=fixed;fontSize=30;fontFamily=Times New Roman;" vertex="1" parent="1">
          <mxGeometry x="1069" y="240" width="60" height="60" as="geometry" />
        </mxCell>
        <mxCell id="TaqGsP5J0sDB7Q5JTHYA-128" style="edgeStyle=none;rounded=0;orthogonalLoop=1;jettySize=auto;html=1;exitX=0.5;exitY=1;exitDx=0;exitDy=0;entryX=0.5;entryY=0;entryDx=0;entryDy=0;endArrow=none;endFill=0;" edge="1" parent="1" source="TaqGsP5J0sDB7Q5JTHYA-112" target="TaqGsP5J0sDB7Q5JTHYA-127">
          <mxGeometry relative="1" as="geometry" />
        </mxCell>
        <mxCell id="TaqGsP5J0sDB7Q5JTHYA-112" value="L" style="ellipse;whiteSpace=wrap;html=1;aspect=fixed;fontSize=30;fontFamily=Times New Roman;" vertex="1" parent="1">
          <mxGeometry x="1129" y="240" width="60" height="60" as="geometry" />
        </mxCell>
        <mxCell id="TaqGsP5J0sDB7Q5JTHYA-115" value="m" style="ellipse;whiteSpace=wrap;html=1;aspect=fixed;fontSize=30;fontFamily=Times New Roman;" vertex="1" parent="1">
          <mxGeometry x="1219" y="250" width="60" height="60" as="geometry" />
        </mxCell>
        <mxCell id="TaqGsP5J0sDB7Q5JTHYA-116" value="{" style="ellipse;whiteSpace=wrap;html=1;aspect=fixed;fontSize=30;fontFamily=Times New Roman;" vertex="1" parent="1">
          <mxGeometry x="1279" y="250" width="60" height="60" as="geometry" />
        </mxCell>
        <mxCell id="TaqGsP5J0sDB7Q5JTHYA-136" style="edgeStyle=none;rounded=0;orthogonalLoop=1;jettySize=auto;html=1;exitX=0.5;exitY=1;exitDx=0;exitDy=0;entryX=0.5;entryY=0;entryDx=0;entryDy=0;endArrow=none;endFill=0;" edge="1" parent="1" source="TaqGsP5J0sDB7Q5JTHYA-117" target="TaqGsP5J0sDB7Q5JTHYA-129">
          <mxGeometry relative="1" as="geometry" />
        </mxCell>
        <mxCell id="TaqGsP5J0sDB7Q5JTHYA-137" style="edgeStyle=none;rounded=0;orthogonalLoop=1;jettySize=auto;html=1;exitX=0.5;exitY=1;exitDx=0;exitDy=0;entryX=0.5;entryY=0;entryDx=0;entryDy=0;endArrow=none;endFill=0;" edge="1" parent="1" source="TaqGsP5J0sDB7Q5JTHYA-117" target="TaqGsP5J0sDB7Q5JTHYA-130">
          <mxGeometry relative="1" as="geometry" />
        </mxCell>
        <mxCell id="TaqGsP5J0sDB7Q5JTHYA-139" style="edgeStyle=none;rounded=0;orthogonalLoop=1;jettySize=auto;html=1;exitX=0.5;exitY=1;exitDx=0;exitDy=0;entryX=0.5;entryY=0;entryDx=0;entryDy=0;endArrow=none;endFill=0;" edge="1" parent="1" source="TaqGsP5J0sDB7Q5JTHYA-117" target="TaqGsP5J0sDB7Q5JTHYA-132">
          <mxGeometry relative="1" as="geometry" />
        </mxCell>
        <mxCell id="TaqGsP5J0sDB7Q5JTHYA-140" style="edgeStyle=none;rounded=0;orthogonalLoop=1;jettySize=auto;html=1;exitX=0.5;exitY=1;exitDx=0;exitDy=0;entryX=0.5;entryY=0;entryDx=0;entryDy=0;endArrow=none;endFill=0;" edge="1" parent="1" source="TaqGsP5J0sDB7Q5JTHYA-117" target="TaqGsP5J0sDB7Q5JTHYA-133">
          <mxGeometry relative="1" as="geometry" />
        </mxCell>
        <mxCell id="TaqGsP5J0sDB7Q5JTHYA-141" style="edgeStyle=none;rounded=0;orthogonalLoop=1;jettySize=auto;html=1;exitX=0.5;exitY=1;exitDx=0;exitDy=0;entryX=0.5;entryY=0;entryDx=0;entryDy=0;endArrow=none;endFill=0;" edge="1" parent="1" source="TaqGsP5J0sDB7Q5JTHYA-117" target="TaqGsP5J0sDB7Q5JTHYA-134">
          <mxGeometry relative="1" as="geometry" />
        </mxCell>
        <mxCell id="TaqGsP5J0sDB7Q5JTHYA-142" style="edgeStyle=none;rounded=0;orthogonalLoop=1;jettySize=auto;html=1;exitX=0.5;exitY=1;exitDx=0;exitDy=0;entryX=0.5;entryY=0;entryDx=0;entryDy=0;endArrow=none;endFill=0;" edge="1" parent="1" source="TaqGsP5J0sDB7Q5JTHYA-117" target="TaqGsP5J0sDB7Q5JTHYA-135">
          <mxGeometry relative="1" as="geometry" />
        </mxCell>
        <mxCell id="TaqGsP5J0sDB7Q5JTHYA-117" value="N" style="ellipse;whiteSpace=wrap;html=1;aspect=fixed;fontSize=30;fontFamily=Times New Roman;" vertex="1" parent="1">
          <mxGeometry x="1339" y="250" width="60" height="60" as="geometry" />
        </mxCell>
        <mxCell id="TaqGsP5J0sDB7Q5JTHYA-118" value="}" style="ellipse;whiteSpace=wrap;html=1;aspect=fixed;fontSize=30;fontFamily=Times New Roman;" vertex="1" parent="1">
          <mxGeometry x="1399" y="250" width="60" height="60" as="geometry" />
        </mxCell>
        <mxCell id="TaqGsP5J0sDB7Q5JTHYA-126" value=";" style="ellipse;whiteSpace=wrap;html=1;aspect=fixed;fontSize=30;fontFamily=Times New Roman;" vertex="1" parent="1">
          <mxGeometry x="1459" y="250" width="60" height="60" as="geometry" />
        </mxCell>
        <mxCell id="TaqGsP5J0sDB7Q5JTHYA-127" value="i" style="ellipse;whiteSpace=wrap;html=1;aspect=fixed;fontSize=30;fontFamily=Times New Roman;" vertex="1" parent="1">
          <mxGeometry x="1140" y="360" width="60" height="60" as="geometry" />
        </mxCell>
        <mxCell id="TaqGsP5J0sDB7Q5JTHYA-129" value="n" style="ellipse;whiteSpace=wrap;html=1;aspect=fixed;fontSize=30;fontFamily=Times New Roman;" vertex="1" parent="1">
          <mxGeometry x="1229" y="360" width="60" height="60" as="geometry" />
        </mxCell>
        <mxCell id="TaqGsP5J0sDB7Q5JTHYA-178" style="edgeStyle=none;rounded=0;orthogonalLoop=1;jettySize=auto;html=1;exitX=0.5;exitY=1;exitDx=0;exitDy=0;entryX=0.5;entryY=0;entryDx=0;entryDy=0;endArrow=none;endFill=0;" edge="1" parent="1" source="TaqGsP5J0sDB7Q5JTHYA-130" target="TaqGsP5J0sDB7Q5JTHYA-177">
          <mxGeometry relative="1" as="geometry" />
        </mxCell>
        <mxCell id="TaqGsP5J0sDB7Q5JTHYA-130" value="T" style="ellipse;whiteSpace=wrap;html=1;aspect=fixed;fontSize=30;fontFamily=Times New Roman;" vertex="1" parent="1">
          <mxGeometry x="1289" y="360" width="60" height="60" as="geometry" />
        </mxCell>
        <mxCell id="TaqGsP5J0sDB7Q5JTHYA-131" value="i" style="ellipse;whiteSpace=wrap;html=1;aspect=fixed;fontSize=30;fontFamily=Times New Roman;" vertex="1" parent="1">
          <mxGeometry x="1349" y="360" width="60" height="60" as="geometry" />
        </mxCell>
        <mxCell id="TaqGsP5J0sDB7Q5JTHYA-132" value="=" style="ellipse;whiteSpace=wrap;html=1;aspect=fixed;fontSize=30;fontFamily=Times New Roman;" vertex="1" parent="1">
          <mxGeometry x="1409" y="360" width="60" height="60" as="geometry" />
        </mxCell>
        <mxCell id="TaqGsP5J0sDB7Q5JTHYA-189" style="edgeStyle=none;rounded=0;orthogonalLoop=1;jettySize=auto;html=1;exitX=0.5;exitY=1;exitDx=0;exitDy=0;entryX=0.5;entryY=0;entryDx=0;entryDy=0;endArrow=none;endFill=0;" edge="1" parent="1" source="TaqGsP5J0sDB7Q5JTHYA-133" target="TaqGsP5J0sDB7Q5JTHYA-179">
          <mxGeometry relative="1" as="geometry" />
        </mxCell>
        <mxCell id="TaqGsP5J0sDB7Q5JTHYA-191" style="edgeStyle=none;rounded=0;orthogonalLoop=1;jettySize=auto;html=1;exitX=0.5;exitY=1;exitDx=0;exitDy=0;entryX=0.5;entryY=0;entryDx=0;entryDy=0;endArrow=none;endFill=0;" edge="1" parent="1" source="TaqGsP5J0sDB7Q5JTHYA-133" target="TaqGsP5J0sDB7Q5JTHYA-181">
          <mxGeometry relative="1" as="geometry" />
        </mxCell>
        <mxCell id="TaqGsP5J0sDB7Q5JTHYA-192" style="edgeStyle=none;rounded=0;orthogonalLoop=1;jettySize=auto;html=1;exitX=0.5;exitY=1;exitDx=0;exitDy=0;entryX=0.5;entryY=0;entryDx=0;entryDy=0;endArrow=none;endFill=0;" edge="1" parent="1" source="TaqGsP5J0sDB7Q5JTHYA-133" target="TaqGsP5J0sDB7Q5JTHYA-182">
          <mxGeometry relative="1" as="geometry" />
        </mxCell>
        <mxCell id="TaqGsP5J0sDB7Q5JTHYA-133" value="E" style="ellipse;whiteSpace=wrap;html=1;aspect=fixed;fontSize=30;fontFamily=Times New Roman;" vertex="1" parent="1">
          <mxGeometry x="1469" y="360" width="60" height="60" as="geometry" />
        </mxCell>
        <mxCell id="TaqGsP5J0sDB7Q5JTHYA-134" value=";" style="ellipse;whiteSpace=wrap;html=1;aspect=fixed;fontSize=30;fontFamily=Times New Roman;" vertex="1" parent="1">
          <mxGeometry x="1529" y="360" width="60" height="60" as="geometry" />
        </mxCell>
        <mxCell id="TaqGsP5J0sDB7Q5JTHYA-193" style="edgeStyle=none;rounded=0;orthogonalLoop=1;jettySize=auto;html=1;exitX=0.5;exitY=1;exitDx=0;exitDy=0;entryX=0.5;entryY=0;entryDx=0;entryDy=0;endArrow=none;endFill=0;" edge="1" parent="1" source="TaqGsP5J0sDB7Q5JTHYA-135" target="TaqGsP5J0sDB7Q5JTHYA-183">
          <mxGeometry relative="1" as="geometry" />
        </mxCell>
        <mxCell id="TaqGsP5J0sDB7Q5JTHYA-194" style="edgeStyle=none;rounded=0;orthogonalLoop=1;jettySize=auto;html=1;exitX=0.5;exitY=1;exitDx=0;exitDy=0;entryX=0.5;entryY=0;entryDx=0;entryDy=0;endArrow=none;endFill=0;" edge="1" parent="1" source="TaqGsP5J0sDB7Q5JTHYA-135" target="TaqGsP5J0sDB7Q5JTHYA-184">
          <mxGeometry relative="1" as="geometry" />
        </mxCell>
        <mxCell id="TaqGsP5J0sDB7Q5JTHYA-195" style="edgeStyle=none;rounded=0;orthogonalLoop=1;jettySize=auto;html=1;exitX=0.5;exitY=1;exitDx=0;exitDy=0;entryX=0.5;entryY=0;entryDx=0;entryDy=0;endArrow=none;endFill=0;" edge="1" parent="1" source="TaqGsP5J0sDB7Q5JTHYA-135" target="TaqGsP5J0sDB7Q5JTHYA-185">
          <mxGeometry relative="1" as="geometry" />
        </mxCell>
        <mxCell id="TaqGsP5J0sDB7Q5JTHYA-197" style="edgeStyle=none;rounded=0;orthogonalLoop=1;jettySize=auto;html=1;exitX=0.5;exitY=1;exitDx=0;exitDy=0;entryX=0.5;entryY=0;entryDx=0;entryDy=0;endArrow=none;endFill=0;" edge="1" parent="1" source="TaqGsP5J0sDB7Q5JTHYA-135" target="TaqGsP5J0sDB7Q5JTHYA-186">
          <mxGeometry relative="1" as="geometry" />
        </mxCell>
        <mxCell id="TaqGsP5J0sDB7Q5JTHYA-135" value="N" style="ellipse;whiteSpace=wrap;html=1;aspect=fixed;fontSize=30;fontFamily=Times New Roman;" vertex="1" parent="1">
          <mxGeometry x="1589" y="360" width="60" height="60" as="geometry" />
        </mxCell>
        <mxCell id="TaqGsP5J0sDB7Q5JTHYA-138" style="edgeStyle=none;rounded=0;orthogonalLoop=1;jettySize=auto;html=1;exitX=0.5;exitY=1;exitDx=0;exitDy=0;entryX=0.5;entryY=0;entryDx=0;entryDy=0;endArrow=none;endFill=0;" edge="1" parent="1" source="TaqGsP5J0sDB7Q5JTHYA-117" target="TaqGsP5J0sDB7Q5JTHYA-131">
          <mxGeometry relative="1" as="geometry" />
        </mxCell>
        <mxCell id="TaqGsP5J0sDB7Q5JTHYA-143" value="(" style="ellipse;whiteSpace=wrap;html=1;aspect=fixed;fontSize=30;fontFamily=Times New Roman;" vertex="1" parent="1">
          <mxGeometry x="270.5" y="480" width="60" height="60" as="geometry" />
        </mxCell>
        <mxCell id="TaqGsP5J0sDB7Q5JTHYA-236" style="edgeStyle=none;rounded=0;orthogonalLoop=1;jettySize=auto;html=1;exitX=0.5;exitY=1;exitDx=0;exitDy=0;entryX=0.5;entryY=0;entryDx=0;entryDy=0;endArrow=none;endFill=0;" edge="1" parent="1" source="TaqGsP5J0sDB7Q5JTHYA-144" target="TaqGsP5J0sDB7Q5JTHYA-234">
          <mxGeometry relative="1" as="geometry" />
        </mxCell>
        <mxCell id="TaqGsP5J0sDB7Q5JTHYA-144" value="L" style="ellipse;whiteSpace=wrap;html=1;aspect=fixed;fontSize=30;fontFamily=Times New Roman;" vertex="1" parent="1">
          <mxGeometry x="330.5" y="480" width="60" height="60" as="geometry" />
        </mxCell>
        <mxCell id="TaqGsP5J0sDB7Q5JTHYA-145" value="&amp;lt;" style="ellipse;whiteSpace=wrap;html=1;aspect=fixed;fontSize=30;fontFamily=Times New Roman;" vertex="1" parent="1">
          <mxGeometry x="390.5" y="480" width="60" height="60" as="geometry" />
        </mxCell>
        <mxCell id="TaqGsP5J0sDB7Q5JTHYA-237" style="edgeStyle=none;rounded=0;orthogonalLoop=1;jettySize=auto;html=1;exitX=0.5;exitY=1;exitDx=0;exitDy=0;entryX=0.5;entryY=0;entryDx=0;entryDy=0;endArrow=none;endFill=0;" edge="1" parent="1" source="TaqGsP5J0sDB7Q5JTHYA-146" target="TaqGsP5J0sDB7Q5JTHYA-235">
          <mxGeometry relative="1" as="geometry" />
        </mxCell>
        <mxCell id="TaqGsP5J0sDB7Q5JTHYA-146" value="L" style="ellipse;whiteSpace=wrap;html=1;aspect=fixed;fontSize=30;fontFamily=Times New Roman;" vertex="1" parent="1">
          <mxGeometry x="450.5" y="480" width="60" height="60" as="geometry" />
        </mxCell>
        <mxCell id="TaqGsP5J0sDB7Q5JTHYA-147" value=")" style="ellipse;whiteSpace=wrap;html=1;aspect=fixed;fontSize=30;fontFamily=Times New Roman;" vertex="1" parent="1">
          <mxGeometry x="510.5" y="480" width="60" height="60" as="geometry" />
        </mxCell>
        <mxCell id="TaqGsP5J0sDB7Q5JTHYA-153" value="i" style="ellipse;whiteSpace=wrap;html=1;aspect=fixed;fontSize=30;fontFamily=Times New Roman;" vertex="1" parent="1">
          <mxGeometry x="600.5" y="480" width="60" height="60" as="geometry" />
        </mxCell>
        <mxCell id="TaqGsP5J0sDB7Q5JTHYA-154" value="=" style="ellipse;whiteSpace=wrap;html=1;aspect=fixed;fontSize=30;fontFamily=Times New Roman;" vertex="1" parent="1">
          <mxGeometry x="660.5" y="480" width="60" height="60" as="geometry" />
        </mxCell>
        <mxCell id="TaqGsP5J0sDB7Q5JTHYA-226" style="edgeStyle=none;rounded=0;orthogonalLoop=1;jettySize=auto;html=1;exitX=0.5;exitY=1;exitDx=0;exitDy=0;entryX=0.5;entryY=0;entryDx=0;entryDy=0;endArrow=none;endFill=0;" edge="1" parent="1" source="TaqGsP5J0sDB7Q5JTHYA-155" target="TaqGsP5J0sDB7Q5JTHYA-208">
          <mxGeometry relative="1" as="geometry" />
        </mxCell>
        <mxCell id="TaqGsP5J0sDB7Q5JTHYA-227" style="edgeStyle=none;rounded=0;orthogonalLoop=1;jettySize=auto;html=1;exitX=0.5;exitY=1;exitDx=0;exitDy=0;entryX=0.5;entryY=0;entryDx=0;entryDy=0;endArrow=none;endFill=0;" edge="1" parent="1" source="TaqGsP5J0sDB7Q5JTHYA-155" target="TaqGsP5J0sDB7Q5JTHYA-210">
          <mxGeometry relative="1" as="geometry" />
        </mxCell>
        <mxCell id="TaqGsP5J0sDB7Q5JTHYA-228" style="edgeStyle=none;rounded=0;orthogonalLoop=1;jettySize=auto;html=1;exitX=0.5;exitY=1;exitDx=0;exitDy=0;entryX=0.5;entryY=0;entryDx=0;entryDy=0;endArrow=none;endFill=0;" edge="1" parent="1" source="TaqGsP5J0sDB7Q5JTHYA-155" target="TaqGsP5J0sDB7Q5JTHYA-209">
          <mxGeometry relative="1" as="geometry" />
        </mxCell>
        <mxCell id="TaqGsP5J0sDB7Q5JTHYA-229" style="edgeStyle=none;rounded=0;orthogonalLoop=1;jettySize=auto;html=1;exitX=0.5;exitY=1;exitDx=0;exitDy=0;entryX=0.5;entryY=0;entryDx=0;entryDy=0;endArrow=none;endFill=0;" edge="1" parent="1" source="TaqGsP5J0sDB7Q5JTHYA-155" target="TaqGsP5J0sDB7Q5JTHYA-211">
          <mxGeometry relative="1" as="geometry" />
        </mxCell>
        <mxCell id="TaqGsP5J0sDB7Q5JTHYA-155" value="E" style="ellipse;whiteSpace=wrap;html=1;aspect=fixed;fontSize=30;fontFamily=Times New Roman;" vertex="1" parent="1">
          <mxGeometry x="720.5" y="480" width="60" height="60" as="geometry" />
        </mxCell>
        <mxCell id="TaqGsP5J0sDB7Q5JTHYA-159" value=";" style="ellipse;whiteSpace=wrap;html=1;aspect=fixed;fontSize=30;fontFamily=Times New Roman;" vertex="1" parent="1">
          <mxGeometry x="780.5" y="480" width="60" height="60" as="geometry" />
        </mxCell>
        <mxCell id="TaqGsP5J0sDB7Q5JTHYA-163" value="i" style="ellipse;whiteSpace=wrap;html=1;aspect=fixed;fontSize=30;fontFamily=Times New Roman;" vertex="1" parent="1">
          <mxGeometry x="869.5" y="480" width="60" height="60" as="geometry" />
        </mxCell>
        <mxCell id="TaqGsP5J0sDB7Q5JTHYA-164" value="=" style="ellipse;whiteSpace=wrap;html=1;aspect=fixed;fontSize=30;fontFamily=Times New Roman;" vertex="1" parent="1">
          <mxGeometry x="929.5" y="480" width="60" height="60" as="geometry" />
        </mxCell>
        <mxCell id="TaqGsP5J0sDB7Q5JTHYA-231" style="edgeStyle=none;rounded=0;orthogonalLoop=1;jettySize=auto;html=1;exitX=0.5;exitY=1;exitDx=0;exitDy=0;entryX=0.5;entryY=0;entryDx=0;entryDy=0;endArrow=none;endFill=0;" edge="1" parent="1" source="TaqGsP5J0sDB7Q5JTHYA-165" target="TaqGsP5J0sDB7Q5JTHYA-218">
          <mxGeometry relative="1" as="geometry" />
        </mxCell>
        <mxCell id="TaqGsP5J0sDB7Q5JTHYA-232" style="edgeStyle=none;rounded=0;orthogonalLoop=1;jettySize=auto;html=1;exitX=0.5;exitY=1;exitDx=0;exitDy=0;entryX=0.5;entryY=0;entryDx=0;entryDy=0;endArrow=none;endFill=0;" edge="1" parent="1" source="TaqGsP5J0sDB7Q5JTHYA-165" target="TaqGsP5J0sDB7Q5JTHYA-217">
          <mxGeometry relative="1" as="geometry" />
        </mxCell>
        <mxCell id="TaqGsP5J0sDB7Q5JTHYA-233" style="edgeStyle=none;rounded=0;orthogonalLoop=1;jettySize=auto;html=1;exitX=0.5;exitY=1;exitDx=0;exitDy=0;entryX=0.5;entryY=0;entryDx=0;entryDy=0;endArrow=none;endFill=0;" edge="1" parent="1" source="TaqGsP5J0sDB7Q5JTHYA-165" target="TaqGsP5J0sDB7Q5JTHYA-219">
          <mxGeometry relative="1" as="geometry" />
        </mxCell>
        <mxCell id="TaqGsP5J0sDB7Q5JTHYA-165" value="E" style="ellipse;whiteSpace=wrap;html=1;aspect=fixed;fontSize=30;fontFamily=Times New Roman;" vertex="1" parent="1">
          <mxGeometry x="989.5" y="480" width="60" height="60" as="geometry" />
        </mxCell>
        <mxCell id="TaqGsP5J0sDB7Q5JTHYA-166" value=";" style="ellipse;whiteSpace=wrap;html=1;aspect=fixed;fontSize=30;fontFamily=Times New Roman;" vertex="1" parent="1">
          <mxGeometry x="1049.5" y="480" width="60" height="60" as="geometry" />
        </mxCell>
        <mxCell id="TaqGsP5J0sDB7Q5JTHYA-167" value="r" style="ellipse;whiteSpace=wrap;html=1;aspect=fixed;fontSize=30;fontFamily=Times New Roman;" vertex="1" parent="1">
          <mxGeometry x="1140.5" y="480" width="60" height="60" as="geometry" />
        </mxCell>
        <mxCell id="TaqGsP5J0sDB7Q5JTHYA-176" style="edgeStyle=none;rounded=0;orthogonalLoop=1;jettySize=auto;html=1;exitX=0.5;exitY=1;exitDx=0;exitDy=0;entryX=0.5;entryY=0;entryDx=0;entryDy=0;endArrow=none;endFill=0;" edge="1" parent="1" source="TaqGsP5J0sDB7Q5JTHYA-168" target="TaqGsP5J0sDB7Q5JTHYA-175">
          <mxGeometry relative="1" as="geometry" />
        </mxCell>
        <mxCell id="TaqGsP5J0sDB7Q5JTHYA-168" value="L" style="ellipse;whiteSpace=wrap;html=1;aspect=fixed;fontSize=30;fontFamily=Times New Roman;" vertex="1" parent="1">
          <mxGeometry x="1200.5" y="480" width="60" height="60" as="geometry" />
        </mxCell>
        <mxCell id="TaqGsP5J0sDB7Q5JTHYA-175" value="L" style="ellipse;whiteSpace=wrap;html=1;aspect=fixed;fontSize=30;fontFamily=Times New Roman;" vertex="1" parent="1">
          <mxGeometry x="1200.5" y="600" width="60" height="60" as="geometry" />
        </mxCell>
        <mxCell id="TaqGsP5J0sDB7Q5JTHYA-177" value="s" style="ellipse;whiteSpace=wrap;html=1;aspect=fixed;fontSize=30;fontFamily=Times New Roman;" vertex="1" parent="1">
          <mxGeometry x="1289.5" y="480" width="60" height="60" as="geometry" />
        </mxCell>
        <mxCell id="TaqGsP5J0sDB7Q5JTHYA-179" value="i" style="ellipse;whiteSpace=wrap;html=1;aspect=fixed;fontSize=30;fontFamily=Times New Roman;" vertex="1" parent="1">
          <mxGeometry x="1379" y="480" width="60" height="60" as="geometry" />
        </mxCell>
        <mxCell id="TaqGsP5J0sDB7Q5JTHYA-180" value="(" style="ellipse;whiteSpace=wrap;html=1;aspect=fixed;fontSize=30;fontFamily=Times New Roman;" vertex="1" parent="1">
          <mxGeometry x="1439" y="480" width="60" height="60" as="geometry" />
        </mxCell>
        <mxCell id="TaqGsP5J0sDB7Q5JTHYA-188" style="edgeStyle=none;rounded=0;orthogonalLoop=1;jettySize=auto;html=1;exitX=0.5;exitY=1;exitDx=0;exitDy=0;entryX=0.5;entryY=0;entryDx=0;entryDy=0;endArrow=none;endFill=0;" edge="1" parent="1" source="TaqGsP5J0sDB7Q5JTHYA-181" target="TaqGsP5J0sDB7Q5JTHYA-187">
          <mxGeometry relative="1" as="geometry" />
        </mxCell>
        <mxCell id="TaqGsP5J0sDB7Q5JTHYA-181" value="W" style="ellipse;whiteSpace=wrap;html=1;aspect=fixed;fontSize=30;fontFamily=Times New Roman;" vertex="1" parent="1">
          <mxGeometry x="1499" y="480" width="60" height="60" as="geometry" />
        </mxCell>
        <mxCell id="TaqGsP5J0sDB7Q5JTHYA-182" value=")" style="ellipse;whiteSpace=wrap;html=1;aspect=fixed;fontSize=30;fontFamily=Times New Roman;" vertex="1" parent="1">
          <mxGeometry x="1559" y="480" width="60" height="60" as="geometry" />
        </mxCell>
        <mxCell id="TaqGsP5J0sDB7Q5JTHYA-183" value="o" style="ellipse;whiteSpace=wrap;html=1;aspect=fixed;fontSize=30;fontFamily=Times New Roman;" vertex="1" parent="1">
          <mxGeometry x="1640" y="480" width="60" height="60" as="geometry" />
        </mxCell>
        <mxCell id="TaqGsP5J0sDB7Q5JTHYA-199" style="edgeStyle=none;rounded=0;orthogonalLoop=1;jettySize=auto;html=1;exitX=0.5;exitY=1;exitDx=0;exitDy=0;entryX=0.5;entryY=0;entryDx=0;entryDy=0;endArrow=none;endFill=0;" edge="1" parent="1" source="TaqGsP5J0sDB7Q5JTHYA-184" target="TaqGsP5J0sDB7Q5JTHYA-198">
          <mxGeometry relative="1" as="geometry" />
        </mxCell>
        <mxCell id="TaqGsP5J0sDB7Q5JTHYA-184" value="L" style="ellipse;whiteSpace=wrap;html=1;aspect=fixed;fontSize=30;fontFamily=Times New Roman;" vertex="1" parent="1">
          <mxGeometry x="1700" y="480" width="60" height="60" as="geometry" />
        </mxCell>
        <mxCell id="TaqGsP5J0sDB7Q5JTHYA-185" value=";" style="ellipse;whiteSpace=wrap;html=1;aspect=fixed;fontSize=30;fontFamily=Times New Roman;" vertex="1" parent="1">
          <mxGeometry x="1760" y="480" width="60" height="60" as="geometry" />
        </mxCell>
        <mxCell id="TaqGsP5J0sDB7Q5JTHYA-204" style="edgeStyle=none;rounded=0;orthogonalLoop=1;jettySize=auto;html=1;exitX=0.5;exitY=1;exitDx=0;exitDy=0;entryX=0.5;entryY=0;entryDx=0;entryDy=0;endArrow=none;endFill=0;" edge="1" parent="1" source="TaqGsP5J0sDB7Q5JTHYA-186" target="TaqGsP5J0sDB7Q5JTHYA-200">
          <mxGeometry relative="1" as="geometry" />
        </mxCell>
        <mxCell id="TaqGsP5J0sDB7Q5JTHYA-205" style="edgeStyle=none;rounded=0;orthogonalLoop=1;jettySize=auto;html=1;exitX=0.5;exitY=1;exitDx=0;exitDy=0;entryX=0.5;entryY=0;entryDx=0;entryDy=0;endArrow=none;endFill=0;" edge="1" parent="1" source="TaqGsP5J0sDB7Q5JTHYA-186" target="TaqGsP5J0sDB7Q5JTHYA-201">
          <mxGeometry relative="1" as="geometry" />
        </mxCell>
        <mxCell id="TaqGsP5J0sDB7Q5JTHYA-206" style="edgeStyle=none;rounded=0;orthogonalLoop=1;jettySize=auto;html=1;exitX=0.5;exitY=1;exitDx=0;exitDy=0;entryX=0.5;entryY=0;entryDx=0;entryDy=0;endArrow=none;endFill=0;" edge="1" parent="1" source="TaqGsP5J0sDB7Q5JTHYA-186" target="TaqGsP5J0sDB7Q5JTHYA-202">
          <mxGeometry relative="1" as="geometry" />
        </mxCell>
        <mxCell id="TaqGsP5J0sDB7Q5JTHYA-207" style="edgeStyle=none;rounded=0;orthogonalLoop=1;jettySize=auto;html=1;exitX=0.5;exitY=1;exitDx=0;exitDy=0;entryX=0.5;entryY=0;entryDx=0;entryDy=0;endArrow=none;endFill=0;" edge="1" parent="1" source="TaqGsP5J0sDB7Q5JTHYA-186" target="TaqGsP5J0sDB7Q5JTHYA-203">
          <mxGeometry relative="1" as="geometry" />
        </mxCell>
        <mxCell id="TaqGsP5J0sDB7Q5JTHYA-186" value="N" style="ellipse;whiteSpace=wrap;html=1;aspect=fixed;fontSize=30;fontFamily=Times New Roman;" vertex="1" parent="1">
          <mxGeometry x="1820" y="480" width="60" height="60" as="geometry" />
        </mxCell>
        <mxCell id="TaqGsP5J0sDB7Q5JTHYA-187" value="i" style="ellipse;whiteSpace=wrap;html=1;aspect=fixed;fontSize=30;fontFamily=Times New Roman;" vertex="1" parent="1">
          <mxGeometry x="1499" y="600" width="60" height="60" as="geometry" />
        </mxCell>
        <mxCell id="TaqGsP5J0sDB7Q5JTHYA-190" style="edgeStyle=none;rounded=0;orthogonalLoop=1;jettySize=auto;html=1;exitX=0.5;exitY=1;exitDx=0;exitDy=0;entryX=0.5;entryY=0;entryDx=0;entryDy=0;endArrow=none;endFill=0;" edge="1" parent="1" source="TaqGsP5J0sDB7Q5JTHYA-133" target="TaqGsP5J0sDB7Q5JTHYA-180">
          <mxGeometry relative="1" as="geometry" />
        </mxCell>
        <mxCell id="TaqGsP5J0sDB7Q5JTHYA-198" value="i" style="ellipse;whiteSpace=wrap;html=1;aspect=fixed;fontSize=30;fontFamily=Times New Roman;" vertex="1" parent="1">
          <mxGeometry x="1589" y="600" width="60" height="60" as="geometry" />
        </mxCell>
        <mxCell id="TaqGsP5J0sDB7Q5JTHYA-200" value="O" style="ellipse;whiteSpace=wrap;html=1;aspect=fixed;fontSize=30;fontFamily=Times New Roman;" vertex="1" parent="1">
          <mxGeometry x="1680" y="600" width="60" height="60" as="geometry" />
        </mxCell>
        <mxCell id="TaqGsP5J0sDB7Q5JTHYA-243" style="edgeStyle=none;rounded=0;orthogonalLoop=1;jettySize=auto;html=1;exitX=0.5;exitY=1;exitDx=0;exitDy=0;entryX=0.5;entryY=0;entryDx=0;entryDy=0;endArrow=none;endFill=0;" edge="1" parent="1" source="TaqGsP5J0sDB7Q5JTHYA-201" target="TaqGsP5J0sDB7Q5JTHYA-238">
          <mxGeometry relative="1" as="geometry" />
        </mxCell>
        <mxCell id="TaqGsP5J0sDB7Q5JTHYA-201" value="L" style="ellipse;whiteSpace=wrap;html=1;aspect=fixed;fontSize=30;fontFamily=Times New Roman;" vertex="1" parent="1">
          <mxGeometry x="1740" y="600" width="60" height="60" as="geometry" />
        </mxCell>
        <mxCell id="TaqGsP5J0sDB7Q5JTHYA-202" value=";" style="ellipse;whiteSpace=wrap;html=1;aspect=fixed;fontSize=30;fontFamily=Times New Roman;" vertex="1" parent="1">
          <mxGeometry x="1800" y="600" width="60" height="60" as="geometry" />
        </mxCell>
        <mxCell id="TaqGsP5J0sDB7Q5JTHYA-247" style="edgeStyle=none;rounded=0;orthogonalLoop=1;jettySize=auto;html=1;exitX=0.5;exitY=1;exitDx=0;exitDy=0;entryX=0.5;entryY=0;entryDx=0;entryDy=0;endArrow=none;endFill=0;" edge="1" parent="1" source="TaqGsP5J0sDB7Q5JTHYA-203" target="TaqGsP5J0sDB7Q5JTHYA-239">
          <mxGeometry relative="1" as="geometry" />
        </mxCell>
        <mxCell id="TaqGsP5J0sDB7Q5JTHYA-248" style="edgeStyle=none;rounded=0;orthogonalLoop=1;jettySize=auto;html=1;exitX=0.5;exitY=1;exitDx=0;exitDy=0;entryX=0.5;entryY=0;entryDx=0;entryDy=0;endArrow=none;endFill=0;" edge="1" parent="1" source="TaqGsP5J0sDB7Q5JTHYA-203" target="TaqGsP5J0sDB7Q5JTHYA-240">
          <mxGeometry relative="1" as="geometry" />
        </mxCell>
        <mxCell id="TaqGsP5J0sDB7Q5JTHYA-249" style="edgeStyle=none;rounded=0;orthogonalLoop=1;jettySize=auto;html=1;exitX=0.5;exitY=1;exitDx=0;exitDy=0;entryX=0.5;entryY=0;entryDx=0;entryDy=0;endArrow=none;endFill=0;" edge="1" parent="1" source="TaqGsP5J0sDB7Q5JTHYA-203" target="TaqGsP5J0sDB7Q5JTHYA-241">
          <mxGeometry relative="1" as="geometry" />
        </mxCell>
        <mxCell id="TaqGsP5J0sDB7Q5JTHYA-250" style="edgeStyle=none;rounded=0;orthogonalLoop=1;jettySize=auto;html=1;exitX=0.5;exitY=1;exitDx=0;exitDy=0;entryX=0.5;entryY=0;entryDx=0;entryDy=0;endArrow=none;endFill=0;" edge="1" parent="1" source="TaqGsP5J0sDB7Q5JTHYA-203" target="TaqGsP5J0sDB7Q5JTHYA-242">
          <mxGeometry relative="1" as="geometry" />
        </mxCell>
        <mxCell id="TaqGsP5J0sDB7Q5JTHYA-251" style="edgeStyle=none;rounded=0;orthogonalLoop=1;jettySize=auto;html=1;exitX=0.5;exitY=1;exitDx=0;exitDy=0;entryX=0.5;entryY=0;entryDx=0;entryDy=0;endArrow=none;endFill=0;" edge="1" parent="1" source="TaqGsP5J0sDB7Q5JTHYA-203" target="TaqGsP5J0sDB7Q5JTHYA-244">
          <mxGeometry relative="1" as="geometry" />
        </mxCell>
        <mxCell id="TaqGsP5J0sDB7Q5JTHYA-252" style="edgeStyle=none;rounded=0;orthogonalLoop=1;jettySize=auto;html=1;exitX=0.5;exitY=1;exitDx=0;exitDy=0;entryX=0.5;entryY=0;entryDx=0;entryDy=0;endArrow=none;endFill=0;" edge="1" parent="1" source="TaqGsP5J0sDB7Q5JTHYA-203" target="TaqGsP5J0sDB7Q5JTHYA-245">
          <mxGeometry relative="1" as="geometry" />
        </mxCell>
        <mxCell id="TaqGsP5J0sDB7Q5JTHYA-253" style="edgeStyle=none;rounded=0;orthogonalLoop=1;jettySize=auto;html=1;exitX=0.5;exitY=1;exitDx=0;exitDy=0;entryX=0.5;entryY=0;entryDx=0;entryDy=0;endArrow=none;endFill=0;" edge="1" parent="1" source="TaqGsP5J0sDB7Q5JTHYA-203" target="TaqGsP5J0sDB7Q5JTHYA-246">
          <mxGeometry relative="1" as="geometry" />
        </mxCell>
        <mxCell id="TaqGsP5J0sDB7Q5JTHYA-203" value="N" style="ellipse;whiteSpace=wrap;html=1;aspect=fixed;fontSize=30;fontFamily=Times New Roman;" vertex="1" parent="1">
          <mxGeometry x="1860" y="600" width="60" height="60" as="geometry" />
        </mxCell>
        <mxCell id="TaqGsP5J0sDB7Q5JTHYA-208" value="a" style="ellipse;whiteSpace=wrap;html=1;aspect=fixed;fontSize=30;fontFamily=Times New Roman;" vertex="1" parent="1">
          <mxGeometry x="600.5" y="600" width="60" height="60" as="geometry" />
        </mxCell>
        <mxCell id="TaqGsP5J0sDB7Q5JTHYA-225" style="edgeStyle=none;rounded=0;orthogonalLoop=1;jettySize=auto;html=1;exitX=0.5;exitY=1;exitDx=0;exitDy=0;entryX=0.5;entryY=0;entryDx=0;entryDy=0;endArrow=none;endFill=0;" edge="1" parent="1" source="TaqGsP5J0sDB7Q5JTHYA-209" target="TaqGsP5J0sDB7Q5JTHYA-220">
          <mxGeometry relative="1" as="geometry" />
        </mxCell>
        <mxCell id="TaqGsP5J0sDB7Q5JTHYA-209" value="W" style="ellipse;whiteSpace=wrap;html=1;aspect=fixed;fontSize=30;fontFamily=Times New Roman;" vertex="1" parent="1">
          <mxGeometry x="720.5" y="600" width="60" height="60" as="geometry" />
        </mxCell>
        <mxCell id="TaqGsP5J0sDB7Q5JTHYA-210" value="(" style="ellipse;whiteSpace=wrap;html=1;aspect=fixed;fontSize=30;fontFamily=Times New Roman;" vertex="1" parent="1">
          <mxGeometry x="660.5" y="600" width="60" height="60" as="geometry" />
        </mxCell>
        <mxCell id="TaqGsP5J0sDB7Q5JTHYA-211" value=")" style="ellipse;whiteSpace=wrap;html=1;aspect=fixed;fontSize=30;fontFamily=Times New Roman;" vertex="1" parent="1">
          <mxGeometry x="780.5" y="600" width="60" height="60" as="geometry" />
        </mxCell>
        <mxCell id="TaqGsP5J0sDB7Q5JTHYA-216" value="p" style="ellipse;whiteSpace=wrap;html=1;aspect=fixed;fontSize=30;fontFamily=Times New Roman;" vertex="1" parent="1">
          <mxGeometry x="869.5" y="600" width="60" height="60" as="geometry" />
        </mxCell>
        <mxCell id="TaqGsP5J0sDB7Q5JTHYA-223" style="edgeStyle=none;rounded=0;orthogonalLoop=1;jettySize=auto;html=1;exitX=0.5;exitY=1;exitDx=0;exitDy=0;entryX=0.5;entryY=0;entryDx=0;entryDy=0;endArrow=none;endFill=0;" edge="1" parent="1" source="TaqGsP5J0sDB7Q5JTHYA-217" target="TaqGsP5J0sDB7Q5JTHYA-221">
          <mxGeometry relative="1" as="geometry" />
        </mxCell>
        <mxCell id="TaqGsP5J0sDB7Q5JTHYA-224" style="edgeStyle=none;rounded=0;orthogonalLoop=1;jettySize=auto;html=1;exitX=0.5;exitY=1;exitDx=0;exitDy=0;entryX=0.5;entryY=0;entryDx=0;entryDy=0;endArrow=none;endFill=0;" edge="1" parent="1" source="TaqGsP5J0sDB7Q5JTHYA-217" target="TaqGsP5J0sDB7Q5JTHYA-222">
          <mxGeometry relative="1" as="geometry" />
        </mxCell>
        <mxCell id="TaqGsP5J0sDB7Q5JTHYA-217" value="W" style="ellipse;whiteSpace=wrap;html=1;aspect=fixed;fontSize=30;fontFamily=Times New Roman;" vertex="1" parent="1">
          <mxGeometry x="989.5" y="600" width="60" height="60" as="geometry" />
        </mxCell>
        <mxCell id="TaqGsP5J0sDB7Q5JTHYA-218" value="(" style="ellipse;whiteSpace=wrap;html=1;aspect=fixed;fontSize=30;fontFamily=Times New Roman;" vertex="1" parent="1">
          <mxGeometry x="929.5" y="600" width="60" height="60" as="geometry" />
        </mxCell>
        <mxCell id="TaqGsP5J0sDB7Q5JTHYA-219" value=")" style="ellipse;whiteSpace=wrap;html=1;aspect=fixed;fontSize=30;fontFamily=Times New Roman;" vertex="1" parent="1">
          <mxGeometry x="1049.5" y="600" width="60" height="60" as="geometry" />
        </mxCell>
        <mxCell id="TaqGsP5J0sDB7Q5JTHYA-220" value="i" style="ellipse;whiteSpace=wrap;html=1;aspect=fixed;fontSize=30;fontFamily=Times New Roman;" vertex="1" parent="1">
          <mxGeometry x="720" y="720" width="60" height="60" as="geometry" />
        </mxCell>
        <mxCell id="TaqGsP5J0sDB7Q5JTHYA-221" value="i" style="ellipse;whiteSpace=wrap;html=1;aspect=fixed;fontSize=30;fontFamily=Times New Roman;" vertex="1" parent="1">
          <mxGeometry x="929.5" y="720" width="60" height="60" as="geometry" />
        </mxCell>
        <mxCell id="TaqGsP5J0sDB7Q5JTHYA-222" value="W" style="ellipse;whiteSpace=wrap;html=1;aspect=fixed;fontSize=30;fontFamily=Times New Roman;" vertex="1" parent="1">
          <mxGeometry x="989.5" y="720" width="60" height="60" as="geometry" />
        </mxCell>
        <mxCell id="TaqGsP5J0sDB7Q5JTHYA-230" style="edgeStyle=none;rounded=0;orthogonalLoop=1;jettySize=auto;html=1;exitX=0.5;exitY=1;exitDx=0;exitDy=0;entryX=0.5;entryY=0;entryDx=0;entryDy=0;endArrow=none;endFill=0;" edge="1" parent="1" source="TaqGsP5J0sDB7Q5JTHYA-165" target="TaqGsP5J0sDB7Q5JTHYA-216">
          <mxGeometry relative="1" as="geometry">
            <mxPoint x="940" y="590" as="targetPoint" />
          </mxGeometry>
        </mxCell>
        <mxCell id="TaqGsP5J0sDB7Q5JTHYA-234" value="i" style="ellipse;whiteSpace=wrap;html=1;aspect=fixed;fontSize=30;fontFamily=Times New Roman;" vertex="1" parent="1">
          <mxGeometry x="330" y="600" width="60" height="60" as="geometry" />
        </mxCell>
        <mxCell id="TaqGsP5J0sDB7Q5JTHYA-235" value="l" style="ellipse;whiteSpace=wrap;html=1;aspect=fixed;fontSize=30;fontFamily=Times New Roman;" vertex="1" parent="1">
          <mxGeometry x="450" y="600" width="60" height="60" as="geometry" />
        </mxCell>
        <mxCell id="TaqGsP5J0sDB7Q5JTHYA-238" value="i" style="ellipse;whiteSpace=wrap;html=1;aspect=fixed;fontSize=30;fontFamily=Times New Roman;" vertex="1" parent="1">
          <mxGeometry x="1469" y="720" width="60" height="60" as="geometry" />
        </mxCell>
        <mxCell id="TaqGsP5J0sDB7Q5JTHYA-239" value="n" style="ellipse;whiteSpace=wrap;html=1;aspect=fixed;fontSize=30;fontFamily=Times New Roman;" vertex="1" parent="1">
          <mxGeometry x="1620" y="720" width="60" height="60" as="geometry" />
        </mxCell>
        <mxCell id="TaqGsP5J0sDB7Q5JTHYA-255" style="edgeStyle=none;rounded=0;orthogonalLoop=1;jettySize=auto;html=1;exitX=0.5;exitY=1;exitDx=0;exitDy=0;entryX=0.5;entryY=0;entryDx=0;entryDy=0;endArrow=none;endFill=0;" edge="1" parent="1" source="TaqGsP5J0sDB7Q5JTHYA-240" target="TaqGsP5J0sDB7Q5JTHYA-254">
          <mxGeometry relative="1" as="geometry" />
        </mxCell>
        <mxCell id="TaqGsP5J0sDB7Q5JTHYA-240" value="T" style="ellipse;whiteSpace=wrap;html=1;aspect=fixed;fontSize=30;fontFamily=Times New Roman;" vertex="1" parent="1">
          <mxGeometry x="1680" y="720" width="60" height="60" as="geometry" />
        </mxCell>
        <mxCell id="TaqGsP5J0sDB7Q5JTHYA-241" value="i" style="ellipse;whiteSpace=wrap;html=1;aspect=fixed;fontSize=30;fontFamily=Times New Roman;" vertex="1" parent="1">
          <mxGeometry x="1740" y="720" width="60" height="60" as="geometry" />
        </mxCell>
        <mxCell id="TaqGsP5J0sDB7Q5JTHYA-242" value="=" style="ellipse;whiteSpace=wrap;html=1;aspect=fixed;fontSize=30;fontFamily=Times New Roman;" vertex="1" parent="1">
          <mxGeometry x="1800" y="720" width="60" height="60" as="geometry" />
        </mxCell>
        <mxCell id="TaqGsP5J0sDB7Q5JTHYA-265" style="edgeStyle=none;rounded=0;orthogonalLoop=1;jettySize=auto;html=1;exitX=0.5;exitY=1;exitDx=0;exitDy=0;entryX=0.5;entryY=0;entryDx=0;entryDy=0;endArrow=none;endFill=0;" edge="1" parent="1" source="TaqGsP5J0sDB7Q5JTHYA-244" target="TaqGsP5J0sDB7Q5JTHYA-259">
          <mxGeometry relative="1" as="geometry" />
        </mxCell>
        <mxCell id="TaqGsP5J0sDB7Q5JTHYA-266" style="edgeStyle=none;rounded=0;orthogonalLoop=1;jettySize=auto;html=1;exitX=0.5;exitY=1;exitDx=0;exitDy=0;entryX=0.5;entryY=0;entryDx=0;entryDy=0;endArrow=none;endFill=0;" edge="1" parent="1" source="TaqGsP5J0sDB7Q5JTHYA-244" target="TaqGsP5J0sDB7Q5JTHYA-258">
          <mxGeometry relative="1" as="geometry" />
        </mxCell>
        <mxCell id="TaqGsP5J0sDB7Q5JTHYA-267" style="edgeStyle=none;rounded=0;orthogonalLoop=1;jettySize=auto;html=1;exitX=0.5;exitY=1;exitDx=0;exitDy=0;entryX=0.5;entryY=0;entryDx=0;entryDy=0;endArrow=none;endFill=0;" edge="1" parent="1" source="TaqGsP5J0sDB7Q5JTHYA-244" target="TaqGsP5J0sDB7Q5JTHYA-257">
          <mxGeometry relative="1" as="geometry" />
        </mxCell>
        <mxCell id="TaqGsP5J0sDB7Q5JTHYA-268" style="edgeStyle=none;rounded=0;orthogonalLoop=1;jettySize=auto;html=1;exitX=0.5;exitY=1;exitDx=0;exitDy=0;entryX=0.5;entryY=0;entryDx=0;entryDy=0;endArrow=none;endFill=0;" edge="1" parent="1" source="TaqGsP5J0sDB7Q5JTHYA-244" target="TaqGsP5J0sDB7Q5JTHYA-256">
          <mxGeometry relative="1" as="geometry" />
        </mxCell>
        <mxCell id="TaqGsP5J0sDB7Q5JTHYA-244" value="E" style="ellipse;whiteSpace=wrap;html=1;aspect=fixed;fontSize=30;fontFamily=Times New Roman;" vertex="1" parent="1">
          <mxGeometry x="1860" y="720" width="60" height="60" as="geometry" />
        </mxCell>
        <mxCell id="TaqGsP5J0sDB7Q5JTHYA-245" value=";" style="ellipse;whiteSpace=wrap;html=1;aspect=fixed;fontSize=30;fontFamily=Times New Roman;" vertex="1" parent="1">
          <mxGeometry x="1920" y="720" width="60" height="60" as="geometry" />
        </mxCell>
        <mxCell id="TaqGsP5J0sDB7Q5JTHYA-269" style="edgeStyle=none;rounded=0;orthogonalLoop=1;jettySize=auto;html=1;exitX=0.5;exitY=1;exitDx=0;exitDy=0;entryX=0.5;entryY=0;entryDx=0;entryDy=0;endArrow=none;endFill=0;" edge="1" parent="1" source="TaqGsP5J0sDB7Q5JTHYA-246" target="TaqGsP5J0sDB7Q5JTHYA-261">
          <mxGeometry relative="1" as="geometry" />
        </mxCell>
        <mxCell id="TaqGsP5J0sDB7Q5JTHYA-270" style="edgeStyle=none;rounded=0;orthogonalLoop=1;jettySize=auto;html=1;exitX=0.5;exitY=1;exitDx=0;exitDy=0;entryX=0.5;entryY=0;entryDx=0;entryDy=0;endArrow=none;endFill=0;" edge="1" parent="1" source="TaqGsP5J0sDB7Q5JTHYA-246" target="TaqGsP5J0sDB7Q5JTHYA-262">
          <mxGeometry relative="1" as="geometry" />
        </mxCell>
        <mxCell id="TaqGsP5J0sDB7Q5JTHYA-271" style="edgeStyle=none;rounded=0;orthogonalLoop=1;jettySize=auto;html=1;exitX=0.5;exitY=1;exitDx=0;exitDy=0;entryX=0.5;entryY=0;entryDx=0;entryDy=0;endArrow=none;endFill=0;" edge="1" parent="1" source="TaqGsP5J0sDB7Q5JTHYA-246" target="TaqGsP5J0sDB7Q5JTHYA-263">
          <mxGeometry relative="1" as="geometry" />
        </mxCell>
        <mxCell id="TaqGsP5J0sDB7Q5JTHYA-272" style="edgeStyle=none;rounded=0;orthogonalLoop=1;jettySize=auto;html=1;exitX=0.5;exitY=1;exitDx=0;exitDy=0;entryX=0.5;entryY=0;entryDx=0;entryDy=0;endArrow=none;endFill=0;" edge="1" parent="1" source="TaqGsP5J0sDB7Q5JTHYA-246" target="TaqGsP5J0sDB7Q5JTHYA-264">
          <mxGeometry relative="1" as="geometry" />
        </mxCell>
        <mxCell id="TaqGsP5J0sDB7Q5JTHYA-246" value="N" style="ellipse;whiteSpace=wrap;html=1;aspect=fixed;fontSize=30;fontFamily=Times New Roman;" vertex="1" parent="1">
          <mxGeometry x="1980" y="720" width="60" height="60" as="geometry" />
        </mxCell>
        <mxCell id="TaqGsP5J0sDB7Q5JTHYA-254" value="s" style="ellipse;whiteSpace=wrap;html=1;aspect=fixed;fontSize=30;fontFamily=Times New Roman;" vertex="1" parent="1">
          <mxGeometry x="1559" y="840" width="60" height="60" as="geometry" />
        </mxCell>
        <mxCell id="TaqGsP5J0sDB7Q5JTHYA-256" value="i" style="ellipse;whiteSpace=wrap;html=1;aspect=fixed;fontSize=30;fontFamily=Times New Roman;" vertex="1" parent="1">
          <mxGeometry x="1649" y="840" width="60" height="60" as="geometry" />
        </mxCell>
        <mxCell id="TaqGsP5J0sDB7Q5JTHYA-257" value="(" style="ellipse;whiteSpace=wrap;html=1;aspect=fixed;fontSize=30;fontFamily=Times New Roman;" vertex="1" parent="1">
          <mxGeometry x="1709" y="840" width="60" height="60" as="geometry" />
        </mxCell>
        <mxCell id="TaqGsP5J0sDB7Q5JTHYA-258" value="W" style="ellipse;whiteSpace=wrap;html=1;aspect=fixed;fontSize=30;fontFamily=Times New Roman;" vertex="1" parent="1">
          <mxGeometry x="1769" y="840" width="60" height="60" as="geometry" />
        </mxCell>
        <mxCell id="TaqGsP5J0sDB7Q5JTHYA-259" value=")" style="ellipse;whiteSpace=wrap;html=1;aspect=fixed;fontSize=30;fontFamily=Times New Roman;" vertex="1" parent="1">
          <mxGeometry x="1829" y="840" width="60" height="60" as="geometry" />
        </mxCell>
        <mxCell id="TaqGsP5J0sDB7Q5JTHYA-260" value="i" style="ellipse;whiteSpace=wrap;html=1;aspect=fixed;fontSize=30;fontFamily=Times New Roman;" vertex="1" parent="1">
          <mxGeometry x="1769" y="960" width="60" height="60" as="geometry" />
        </mxCell>
        <mxCell id="TaqGsP5J0sDB7Q5JTHYA-261" value="o" style="ellipse;whiteSpace=wrap;html=1;aspect=fixed;fontSize=30;fontFamily=Times New Roman;" vertex="1" parent="1">
          <mxGeometry x="1920" y="840" width="60" height="60" as="geometry" />
        </mxCell>
        <mxCell id="TaqGsP5J0sDB7Q5JTHYA-289" style="edgeStyle=none;rounded=0;orthogonalLoop=1;jettySize=auto;html=1;exitX=0.5;exitY=1;exitDx=0;exitDy=0;entryX=0.5;entryY=0;entryDx=0;entryDy=0;" edge="1" parent="1" source="TaqGsP5J0sDB7Q5JTHYA-262" target="TaqGsP5J0sDB7Q5JTHYA-260">
          <mxGeometry relative="1" as="geometry" />
        </mxCell>
        <mxCell id="TaqGsP5J0sDB7Q5JTHYA-262" value="L" style="ellipse;whiteSpace=wrap;html=1;aspect=fixed;fontSize=30;fontFamily=Times New Roman;" vertex="1" parent="1">
          <mxGeometry x="1980" y="840" width="60" height="60" as="geometry" />
        </mxCell>
        <mxCell id="TaqGsP5J0sDB7Q5JTHYA-263" value=";" style="ellipse;whiteSpace=wrap;html=1;aspect=fixed;fontSize=30;fontFamily=Times New Roman;" vertex="1" parent="1">
          <mxGeometry x="2040" y="840" width="60" height="60" as="geometry" />
        </mxCell>
        <mxCell id="TaqGsP5J0sDB7Q5JTHYA-282" style="edgeStyle=none;rounded=0;orthogonalLoop=1;jettySize=auto;html=1;exitX=0.5;exitY=1;exitDx=0;exitDy=0;entryX=0.5;entryY=0;entryDx=0;entryDy=0;" edge="1" parent="1" source="TaqGsP5J0sDB7Q5JTHYA-264" target="TaqGsP5J0sDB7Q5JTHYA-274">
          <mxGeometry relative="1" as="geometry" />
        </mxCell>
        <mxCell id="TaqGsP5J0sDB7Q5JTHYA-283" style="edgeStyle=none;rounded=0;orthogonalLoop=1;jettySize=auto;html=1;exitX=0.5;exitY=1;exitDx=0;exitDy=0;entryX=0.5;entryY=0;entryDx=0;entryDy=0;" edge="1" parent="1" source="TaqGsP5J0sDB7Q5JTHYA-264" target="TaqGsP5J0sDB7Q5JTHYA-275">
          <mxGeometry relative="1" as="geometry" />
        </mxCell>
        <mxCell id="TaqGsP5J0sDB7Q5JTHYA-284" style="edgeStyle=none;rounded=0;orthogonalLoop=1;jettySize=auto;html=1;exitX=0.5;exitY=1;exitDx=0;exitDy=0;entryX=0.5;entryY=0;entryDx=0;entryDy=0;" edge="1" parent="1" source="TaqGsP5J0sDB7Q5JTHYA-264" target="TaqGsP5J0sDB7Q5JTHYA-276">
          <mxGeometry relative="1" as="geometry" />
        </mxCell>
        <mxCell id="TaqGsP5J0sDB7Q5JTHYA-285" style="edgeStyle=none;rounded=0;orthogonalLoop=1;jettySize=auto;html=1;exitX=0.5;exitY=1;exitDx=0;exitDy=0;entryX=0.5;entryY=0;entryDx=0;entryDy=0;" edge="1" parent="1" source="TaqGsP5J0sDB7Q5JTHYA-264" target="TaqGsP5J0sDB7Q5JTHYA-277">
          <mxGeometry relative="1" as="geometry" />
        </mxCell>
        <mxCell id="TaqGsP5J0sDB7Q5JTHYA-286" style="edgeStyle=none;rounded=0;orthogonalLoop=1;jettySize=auto;html=1;exitX=0.5;exitY=1;exitDx=0;exitDy=0;entryX=0.5;entryY=0;entryDx=0;entryDy=0;" edge="1" parent="1" source="TaqGsP5J0sDB7Q5JTHYA-264" target="TaqGsP5J0sDB7Q5JTHYA-278">
          <mxGeometry relative="1" as="geometry" />
        </mxCell>
        <mxCell id="TaqGsP5J0sDB7Q5JTHYA-287" style="edgeStyle=none;rounded=0;orthogonalLoop=1;jettySize=auto;html=1;exitX=0.5;exitY=1;exitDx=0;exitDy=0;entryX=0.5;entryY=0;entryDx=0;entryDy=0;" edge="1" parent="1" source="TaqGsP5J0sDB7Q5JTHYA-264" target="TaqGsP5J0sDB7Q5JTHYA-279">
          <mxGeometry relative="1" as="geometry" />
        </mxCell>
        <mxCell id="TaqGsP5J0sDB7Q5JTHYA-288" style="edgeStyle=none;rounded=0;orthogonalLoop=1;jettySize=auto;html=1;exitX=0.5;exitY=1;exitDx=0;exitDy=0;entryX=0.5;entryY=0;entryDx=0;entryDy=0;" edge="1" parent="1" source="TaqGsP5J0sDB7Q5JTHYA-264" target="TaqGsP5J0sDB7Q5JTHYA-280">
          <mxGeometry relative="1" as="geometry" />
        </mxCell>
        <mxCell id="TaqGsP5J0sDB7Q5JTHYA-264" value="N" style="ellipse;whiteSpace=wrap;html=1;aspect=fixed;fontSize=30;fontFamily=Times New Roman;" vertex="1" parent="1">
          <mxGeometry x="2100" y="840" width="60" height="60" as="geometry" />
        </mxCell>
        <mxCell id="TaqGsP5J0sDB7Q5JTHYA-274" value="n" style="ellipse;whiteSpace=wrap;html=1;aspect=fixed;fontSize=30;fontFamily=Times New Roman;" vertex="1" parent="1">
          <mxGeometry x="1860" y="960" width="60" height="60" as="geometry" />
        </mxCell>
        <mxCell id="TaqGsP5J0sDB7Q5JTHYA-301" style="edgeStyle=none;rounded=0;orthogonalLoop=1;jettySize=auto;html=1;exitX=0.5;exitY=1;exitDx=0;exitDy=0;entryX=0.5;entryY=0;entryDx=0;entryDy=0;" edge="1" parent="1" source="TaqGsP5J0sDB7Q5JTHYA-275" target="TaqGsP5J0sDB7Q5JTHYA-290">
          <mxGeometry relative="1" as="geometry" />
        </mxCell>
        <mxCell id="TaqGsP5J0sDB7Q5JTHYA-275" value="T" style="ellipse;whiteSpace=wrap;html=1;aspect=fixed;fontSize=30;fontFamily=Times New Roman;" vertex="1" parent="1">
          <mxGeometry x="1920" y="960" width="60" height="60" as="geometry" />
        </mxCell>
        <mxCell id="TaqGsP5J0sDB7Q5JTHYA-276" value="i" style="ellipse;whiteSpace=wrap;html=1;aspect=fixed;fontSize=30;fontFamily=Times New Roman;" vertex="1" parent="1">
          <mxGeometry x="1980" y="960" width="60" height="60" as="geometry" />
        </mxCell>
        <mxCell id="TaqGsP5J0sDB7Q5JTHYA-277" value="=" style="ellipse;whiteSpace=wrap;html=1;aspect=fixed;fontSize=30;fontFamily=Times New Roman;" vertex="1" parent="1">
          <mxGeometry x="2040" y="960" width="60" height="60" as="geometry" />
        </mxCell>
        <mxCell id="TaqGsP5J0sDB7Q5JTHYA-302" style="edgeStyle=none;rounded=0;orthogonalLoop=1;jettySize=auto;html=1;exitX=0.5;exitY=1;exitDx=0;exitDy=0;entryX=0.5;entryY=0;entryDx=0;entryDy=0;" edge="1" parent="1" source="TaqGsP5J0sDB7Q5JTHYA-278" target="TaqGsP5J0sDB7Q5JTHYA-299">
          <mxGeometry relative="1" as="geometry" />
        </mxCell>
        <mxCell id="TaqGsP5J0sDB7Q5JTHYA-303" style="edgeStyle=none;rounded=0;orthogonalLoop=1;jettySize=auto;html=1;exitX=0.5;exitY=1;exitDx=0;exitDy=0;entryX=0.5;entryY=0;entryDx=0;entryDy=0;" edge="1" parent="1" source="TaqGsP5J0sDB7Q5JTHYA-278" target="TaqGsP5J0sDB7Q5JTHYA-300">
          <mxGeometry relative="1" as="geometry" />
        </mxCell>
        <mxCell id="TaqGsP5J0sDB7Q5JTHYA-278" value="E" style="ellipse;whiteSpace=wrap;html=1;aspect=fixed;fontSize=30;fontFamily=Times New Roman;" vertex="1" parent="1">
          <mxGeometry x="2100" y="960" width="60" height="60" as="geometry" />
        </mxCell>
        <mxCell id="TaqGsP5J0sDB7Q5JTHYA-279" value=";" style="ellipse;whiteSpace=wrap;html=1;aspect=fixed;fontSize=30;fontFamily=Times New Roman;" vertex="1" parent="1">
          <mxGeometry x="2160" y="960" width="60" height="60" as="geometry" />
        </mxCell>
        <mxCell id="TaqGsP5J0sDB7Q5JTHYA-304" style="edgeStyle=none;rounded=0;orthogonalLoop=1;jettySize=auto;html=1;exitX=0.5;exitY=1;exitDx=0;exitDy=0;entryX=0.5;entryY=0;entryDx=0;entryDy=0;" edge="1" parent="1" source="TaqGsP5J0sDB7Q5JTHYA-280" target="TaqGsP5J0sDB7Q5JTHYA-295">
          <mxGeometry relative="1" as="geometry" />
        </mxCell>
        <mxCell id="TaqGsP5J0sDB7Q5JTHYA-305" style="edgeStyle=none;rounded=0;orthogonalLoop=1;jettySize=auto;html=1;exitX=0.5;exitY=1;exitDx=0;exitDy=0;entryX=0.5;entryY=0;entryDx=0;entryDy=0;" edge="1" parent="1" source="TaqGsP5J0sDB7Q5JTHYA-280" target="TaqGsP5J0sDB7Q5JTHYA-296">
          <mxGeometry relative="1" as="geometry" />
        </mxCell>
        <mxCell id="TaqGsP5J0sDB7Q5JTHYA-306" style="edgeStyle=none;rounded=0;orthogonalLoop=1;jettySize=auto;html=1;exitX=0.5;exitY=1;exitDx=0;exitDy=0;entryX=0.5;entryY=0;entryDx=0;entryDy=0;" edge="1" parent="1" source="TaqGsP5J0sDB7Q5JTHYA-280" target="TaqGsP5J0sDB7Q5JTHYA-297">
          <mxGeometry relative="1" as="geometry" />
        </mxCell>
        <mxCell id="TaqGsP5J0sDB7Q5JTHYA-307" style="edgeStyle=none;rounded=0;orthogonalLoop=1;jettySize=auto;html=1;exitX=0.5;exitY=1;exitDx=0;exitDy=0;entryX=0.5;entryY=0;entryDx=0;entryDy=0;" edge="1" parent="1" source="TaqGsP5J0sDB7Q5JTHYA-280" target="TaqGsP5J0sDB7Q5JTHYA-298">
          <mxGeometry relative="1" as="geometry" />
        </mxCell>
        <mxCell id="TaqGsP5J0sDB7Q5JTHYA-280" value="N" style="ellipse;whiteSpace=wrap;html=1;aspect=fixed;fontSize=30;fontFamily=Times New Roman;" vertex="1" parent="1">
          <mxGeometry x="2220" y="960" width="60" height="60" as="geometry" />
        </mxCell>
        <mxCell id="TaqGsP5J0sDB7Q5JTHYA-290" value="d" style="ellipse;whiteSpace=wrap;html=1;aspect=fixed;fontSize=30;fontFamily=Times New Roman;" vertex="1" parent="1">
          <mxGeometry x="1860" y="1080" width="60" height="60" as="geometry" />
        </mxCell>
        <mxCell id="TaqGsP5J0sDB7Q5JTHYA-295" value="o" style="ellipse;whiteSpace=wrap;html=1;aspect=fixed;fontSize=30;fontFamily=Times New Roman;" vertex="1" parent="1">
          <mxGeometry x="2100" y="1080" width="60" height="60" as="geometry" />
        </mxCell>
        <mxCell id="TaqGsP5J0sDB7Q5JTHYA-325" style="edgeStyle=none;rounded=0;orthogonalLoop=1;jettySize=auto;html=1;exitX=0.5;exitY=1;exitDx=0;exitDy=0;entryX=0.5;entryY=0;entryDx=0;entryDy=0;" edge="1" parent="1" source="TaqGsP5J0sDB7Q5JTHYA-296" target="TaqGsP5J0sDB7Q5JTHYA-314">
          <mxGeometry relative="1" as="geometry" />
        </mxCell>
        <mxCell id="TaqGsP5J0sDB7Q5JTHYA-296" value="L" style="ellipse;whiteSpace=wrap;html=1;aspect=fixed;fontSize=30;fontFamily=Times New Roman;" vertex="1" parent="1">
          <mxGeometry x="2160" y="1080" width="60" height="60" as="geometry" />
        </mxCell>
        <mxCell id="TaqGsP5J0sDB7Q5JTHYA-297" value=";" style="ellipse;whiteSpace=wrap;html=1;aspect=fixed;fontSize=30;fontFamily=Times New Roman;" vertex="1" parent="1">
          <mxGeometry x="2220" y="1080" width="60" height="60" as="geometry" />
        </mxCell>
        <mxCell id="TaqGsP5J0sDB7Q5JTHYA-326" style="edgeStyle=none;rounded=0;orthogonalLoop=1;jettySize=auto;html=1;exitX=0.5;exitY=1;exitDx=0;exitDy=0;entryX=0.5;entryY=0;entryDx=0;entryDy=0;" edge="1" parent="1" source="TaqGsP5J0sDB7Q5JTHYA-298" target="TaqGsP5J0sDB7Q5JTHYA-315">
          <mxGeometry relative="1" as="geometry" />
        </mxCell>
        <mxCell id="TaqGsP5J0sDB7Q5JTHYA-327" style="edgeStyle=none;rounded=0;orthogonalLoop=1;jettySize=auto;html=1;exitX=0.5;exitY=1;exitDx=0;exitDy=0;entryX=0.5;entryY=0;entryDx=0;entryDy=0;" edge="1" parent="1" source="TaqGsP5J0sDB7Q5JTHYA-298" target="TaqGsP5J0sDB7Q5JTHYA-316">
          <mxGeometry relative="1" as="geometry" />
        </mxCell>
        <mxCell id="TaqGsP5J0sDB7Q5JTHYA-328" style="edgeStyle=none;rounded=0;orthogonalLoop=1;jettySize=auto;html=1;exitX=0.5;exitY=1;exitDx=0;exitDy=0;entryX=0.5;entryY=0;entryDx=0;entryDy=0;" edge="1" parent="1" source="TaqGsP5J0sDB7Q5JTHYA-298" target="TaqGsP5J0sDB7Q5JTHYA-317">
          <mxGeometry relative="1" as="geometry" />
        </mxCell>
        <mxCell id="TaqGsP5J0sDB7Q5JTHYA-329" style="edgeStyle=none;rounded=0;orthogonalLoop=1;jettySize=auto;html=1;exitX=0.5;exitY=1;exitDx=0;exitDy=0;entryX=0.5;entryY=0;entryDx=0;entryDy=0;" edge="1" parent="1" source="TaqGsP5J0sDB7Q5JTHYA-298" target="TaqGsP5J0sDB7Q5JTHYA-318">
          <mxGeometry relative="1" as="geometry" />
        </mxCell>
        <mxCell id="TaqGsP5J0sDB7Q5JTHYA-298" value="N" style="ellipse;whiteSpace=wrap;html=1;aspect=fixed;fontSize=30;fontFamily=Times New Roman;" vertex="1" parent="1">
          <mxGeometry x="2280" y="1080" width="60" height="60" as="geometry" />
        </mxCell>
        <mxCell id="TaqGsP5J0sDB7Q5JTHYA-311" style="edgeStyle=none;rounded=0;orthogonalLoop=1;jettySize=auto;html=1;exitX=0.5;exitY=1;exitDx=0;exitDy=0;entryX=0.5;entryY=0;entryDx=0;entryDy=0;" edge="1" parent="1" source="TaqGsP5J0sDB7Q5JTHYA-299" target="TaqGsP5J0sDB7Q5JTHYA-308">
          <mxGeometry relative="1" as="geometry" />
        </mxCell>
        <mxCell id="TaqGsP5J0sDB7Q5JTHYA-299" value="l" style="ellipse;whiteSpace=wrap;html=1;aspect=fixed;fontSize=30;fontFamily=Times New Roman;" vertex="1" parent="1">
          <mxGeometry x="1950" y="1080" width="60" height="60" as="geometry" />
        </mxCell>
        <mxCell id="TaqGsP5J0sDB7Q5JTHYA-310" style="edgeStyle=none;rounded=0;orthogonalLoop=1;jettySize=auto;html=1;exitX=0.5;exitY=1;exitDx=0;exitDy=0;entryX=0.5;entryY=0;entryDx=0;entryDy=0;" edge="1" parent="1" source="TaqGsP5J0sDB7Q5JTHYA-300" target="TaqGsP5J0sDB7Q5JTHYA-309">
          <mxGeometry relative="1" as="geometry" />
        </mxCell>
        <mxCell id="TaqGsP5J0sDB7Q5JTHYA-300" value="M" style="ellipse;whiteSpace=wrap;html=1;aspect=fixed;fontSize=30;fontFamily=Times New Roman;" vertex="1" parent="1">
          <mxGeometry x="2010" y="1080" width="60" height="60" as="geometry" />
        </mxCell>
        <mxCell id="TaqGsP5J0sDB7Q5JTHYA-308" value="/" style="ellipse;whiteSpace=wrap;html=1;aspect=fixed;fontSize=30;fontFamily=Times New Roman;" vertex="1" parent="1">
          <mxGeometry x="1889" y="1200" width="60" height="60" as="geometry" />
        </mxCell>
        <mxCell id="TaqGsP5J0sDB7Q5JTHYA-313" style="edgeStyle=none;rounded=0;orthogonalLoop=1;jettySize=auto;html=1;exitX=0.5;exitY=1;exitDx=0;exitDy=0;entryX=0.5;entryY=0;entryDx=0;entryDy=0;" edge="1" parent="1" source="TaqGsP5J0sDB7Q5JTHYA-309" target="TaqGsP5J0sDB7Q5JTHYA-312">
          <mxGeometry relative="1" as="geometry" />
        </mxCell>
        <mxCell id="TaqGsP5J0sDB7Q5JTHYA-309" value="E" style="ellipse;whiteSpace=wrap;html=1;aspect=fixed;fontSize=30;fontFamily=Times New Roman;" vertex="1" parent="1">
          <mxGeometry x="1949" y="1200" width="60" height="60" as="geometry" />
        </mxCell>
        <mxCell id="TaqGsP5J0sDB7Q5JTHYA-312" value="l" style="ellipse;whiteSpace=wrap;html=1;aspect=fixed;fontSize=30;fontFamily=Times New Roman;" vertex="1" parent="1">
          <mxGeometry x="1950" y="1320" width="60" height="60" as="geometry" />
        </mxCell>
        <mxCell id="TaqGsP5J0sDB7Q5JTHYA-314" value="i" style="ellipse;whiteSpace=wrap;html=1;aspect=fixed;fontSize=30;fontFamily=Times New Roman;" vertex="1" parent="1">
          <mxGeometry x="2070" y="1200" width="60" height="60" as="geometry" />
        </mxCell>
        <mxCell id="TaqGsP5J0sDB7Q5JTHYA-315" value="o" style="ellipse;whiteSpace=wrap;html=1;aspect=fixed;fontSize=30;fontFamily=Times New Roman;" vertex="1" parent="1">
          <mxGeometry x="2160" y="1200" width="60" height="60" as="geometry" />
        </mxCell>
        <mxCell id="TaqGsP5J0sDB7Q5JTHYA-330" style="edgeStyle=none;rounded=0;orthogonalLoop=1;jettySize=auto;html=1;exitX=0.5;exitY=1;exitDx=0;exitDy=0;entryX=0.5;entryY=0;entryDx=0;entryDy=0;" edge="1" parent="1" source="TaqGsP5J0sDB7Q5JTHYA-316" target="TaqGsP5J0sDB7Q5JTHYA-319">
          <mxGeometry relative="1" as="geometry" />
        </mxCell>
        <mxCell id="TaqGsP5J0sDB7Q5JTHYA-316" value="L" style="ellipse;whiteSpace=wrap;html=1;aspect=fixed;fontSize=30;fontFamily=Times New Roman;" vertex="1" parent="1">
          <mxGeometry x="2220" y="1200" width="60" height="60" as="geometry" />
        </mxCell>
        <mxCell id="TaqGsP5J0sDB7Q5JTHYA-317" value=";" style="ellipse;whiteSpace=wrap;html=1;aspect=fixed;fontSize=30;fontFamily=Times New Roman;" vertex="1" parent="1">
          <mxGeometry x="2280" y="1200" width="60" height="60" as="geometry" />
        </mxCell>
        <mxCell id="TaqGsP5J0sDB7Q5JTHYA-331" style="edgeStyle=none;rounded=0;orthogonalLoop=1;jettySize=auto;html=1;exitX=0.5;exitY=1;exitDx=0;exitDy=0;entryX=0.5;entryY=0;entryDx=0;entryDy=0;" edge="1" parent="1" source="TaqGsP5J0sDB7Q5JTHYA-318" target="TaqGsP5J0sDB7Q5JTHYA-320">
          <mxGeometry relative="1" as="geometry" />
        </mxCell>
        <mxCell id="TaqGsP5J0sDB7Q5JTHYA-332" style="edgeStyle=none;rounded=0;orthogonalLoop=1;jettySize=auto;html=1;exitX=0.5;exitY=1;exitDx=0;exitDy=0;entryX=0.5;entryY=0;entryDx=0;entryDy=0;" edge="1" parent="1" source="TaqGsP5J0sDB7Q5JTHYA-318" target="TaqGsP5J0sDB7Q5JTHYA-321">
          <mxGeometry relative="1" as="geometry" />
        </mxCell>
        <mxCell id="TaqGsP5J0sDB7Q5JTHYA-333" style="edgeStyle=none;rounded=0;orthogonalLoop=1;jettySize=auto;html=1;exitX=0.5;exitY=1;exitDx=0;exitDy=0;entryX=0.5;entryY=0;entryDx=0;entryDy=0;" edge="1" parent="1" source="TaqGsP5J0sDB7Q5JTHYA-318" target="TaqGsP5J0sDB7Q5JTHYA-322">
          <mxGeometry relative="1" as="geometry" />
        </mxCell>
        <mxCell id="TaqGsP5J0sDB7Q5JTHYA-334" style="edgeStyle=none;rounded=0;orthogonalLoop=1;jettySize=auto;html=1;exitX=0.5;exitY=1;exitDx=0;exitDy=0;entryX=0.5;entryY=0;entryDx=0;entryDy=0;" edge="1" parent="1" source="TaqGsP5J0sDB7Q5JTHYA-318" target="TaqGsP5J0sDB7Q5JTHYA-324">
          <mxGeometry relative="1" as="geometry" />
        </mxCell>
        <mxCell id="TaqGsP5J0sDB7Q5JTHYA-335" style="edgeStyle=none;rounded=0;orthogonalLoop=1;jettySize=auto;html=1;exitX=0.5;exitY=1;exitDx=0;exitDy=0;entryX=0.5;entryY=0;entryDx=0;entryDy=0;" edge="1" parent="1" source="TaqGsP5J0sDB7Q5JTHYA-318" target="TaqGsP5J0sDB7Q5JTHYA-323">
          <mxGeometry relative="1" as="geometry" />
        </mxCell>
        <mxCell id="TaqGsP5J0sDB7Q5JTHYA-318" value="N" style="ellipse;whiteSpace=wrap;html=1;aspect=fixed;fontSize=30;fontFamily=Times New Roman;" vertex="1" parent="1">
          <mxGeometry x="2340" y="1200" width="60" height="60" as="geometry" />
        </mxCell>
        <mxCell id="TaqGsP5J0sDB7Q5JTHYA-319" value="l" style="ellipse;whiteSpace=wrap;html=1;aspect=fixed;fontSize=30;fontFamily=Times New Roman;" vertex="1" parent="1">
          <mxGeometry x="2070" y="1320" width="60" height="60" as="geometry" />
        </mxCell>
        <mxCell id="TaqGsP5J0sDB7Q5JTHYA-320" value="i" style="ellipse;whiteSpace=wrap;html=1;aspect=fixed;fontSize=30;fontFamily=Times New Roman;" vertex="1" parent="1">
          <mxGeometry x="2160" y="1320" width="60" height="60" as="geometry" />
        </mxCell>
        <mxCell id="TaqGsP5J0sDB7Q5JTHYA-321" value="=" style="ellipse;whiteSpace=wrap;html=1;aspect=fixed;fontSize=30;fontFamily=Times New Roman;" vertex="1" parent="1">
          <mxGeometry x="2220" y="1320" width="60" height="60" as="geometry" />
        </mxCell>
        <mxCell id="TaqGsP5J0sDB7Q5JTHYA-343" style="edgeStyle=none;rounded=0;orthogonalLoop=1;jettySize=auto;html=1;exitX=0.5;exitY=1;exitDx=0;exitDy=0;entryX=0.5;entryY=0;entryDx=0;entryDy=0;" edge="1" parent="1" source="TaqGsP5J0sDB7Q5JTHYA-322" target="TaqGsP5J0sDB7Q5JTHYA-341">
          <mxGeometry relative="1" as="geometry" />
        </mxCell>
        <mxCell id="TaqGsP5J0sDB7Q5JTHYA-344" style="edgeStyle=none;rounded=0;orthogonalLoop=1;jettySize=auto;html=1;exitX=0.5;exitY=1;exitDx=0;exitDy=0;entryX=0.5;entryY=0;entryDx=0;entryDy=0;" edge="1" parent="1" source="TaqGsP5J0sDB7Q5JTHYA-322" target="TaqGsP5J0sDB7Q5JTHYA-342">
          <mxGeometry relative="1" as="geometry" />
        </mxCell>
        <mxCell id="TaqGsP5J0sDB7Q5JTHYA-322" value="E" style="ellipse;whiteSpace=wrap;html=1;aspect=fixed;fontSize=30;fontFamily=Times New Roman;" vertex="1" parent="1">
          <mxGeometry x="2280" y="1320" width="60" height="60" as="geometry" />
        </mxCell>
        <mxCell id="TaqGsP5J0sDB7Q5JTHYA-323" value=";" style="ellipse;whiteSpace=wrap;html=1;aspect=fixed;fontSize=30;fontFamily=Times New Roman;" vertex="1" parent="1">
          <mxGeometry x="2340" y="1320" width="60" height="60" as="geometry" />
        </mxCell>
        <mxCell id="TaqGsP5J0sDB7Q5JTHYA-345" style="edgeStyle=none;rounded=0;orthogonalLoop=1;jettySize=auto;html=1;exitX=0.5;exitY=1;exitDx=0;exitDy=0;entryX=0.5;entryY=0;entryDx=0;entryDy=0;" edge="1" parent="1" source="TaqGsP5J0sDB7Q5JTHYA-324" target="TaqGsP5J0sDB7Q5JTHYA-337">
          <mxGeometry relative="1" as="geometry" />
        </mxCell>
        <mxCell id="TaqGsP5J0sDB7Q5JTHYA-346" style="edgeStyle=none;rounded=0;orthogonalLoop=1;jettySize=auto;html=1;exitX=0.5;exitY=1;exitDx=0;exitDy=0;entryX=0.5;entryY=0;entryDx=0;entryDy=0;" edge="1" parent="1" source="TaqGsP5J0sDB7Q5JTHYA-324" target="TaqGsP5J0sDB7Q5JTHYA-338">
          <mxGeometry relative="1" as="geometry" />
        </mxCell>
        <mxCell id="TaqGsP5J0sDB7Q5JTHYA-348" style="edgeStyle=none;rounded=0;orthogonalLoop=1;jettySize=auto;html=1;exitX=0.5;exitY=1;exitDx=0;exitDy=0;entryX=0.5;entryY=0;entryDx=0;entryDy=0;" edge="1" parent="1" source="TaqGsP5J0sDB7Q5JTHYA-324" target="TaqGsP5J0sDB7Q5JTHYA-340">
          <mxGeometry relative="1" as="geometry" />
        </mxCell>
        <mxCell id="TaqGsP5J0sDB7Q5JTHYA-324" value="N" style="ellipse;whiteSpace=wrap;html=1;aspect=fixed;fontSize=30;fontFamily=Times New Roman;" vertex="1" parent="1">
          <mxGeometry x="2400" y="1320" width="60" height="60" as="geometry" />
        </mxCell>
        <mxCell id="TaqGsP5J0sDB7Q5JTHYA-337" value="o" style="ellipse;whiteSpace=wrap;html=1;aspect=fixed;fontSize=30;fontFamily=Times New Roman;" vertex="1" parent="1">
          <mxGeometry x="2250" y="1440" width="60" height="60" as="geometry" />
        </mxCell>
        <mxCell id="TaqGsP5J0sDB7Q5JTHYA-362" style="edgeStyle=none;rounded=0;orthogonalLoop=1;jettySize=auto;html=1;exitX=0.5;exitY=1;exitDx=0;exitDy=0;entryX=0.5;entryY=0;entryDx=0;entryDy=0;" edge="1" parent="1" source="TaqGsP5J0sDB7Q5JTHYA-338" target="TaqGsP5J0sDB7Q5JTHYA-351">
          <mxGeometry relative="1" as="geometry" />
        </mxCell>
        <mxCell id="TaqGsP5J0sDB7Q5JTHYA-338" value="L" style="ellipse;whiteSpace=wrap;html=1;aspect=fixed;fontSize=30;fontFamily=Times New Roman;" vertex="1" parent="1">
          <mxGeometry x="2310" y="1440" width="60" height="60" as="geometry" />
        </mxCell>
        <mxCell id="TaqGsP5J0sDB7Q5JTHYA-339" value=";" style="ellipse;whiteSpace=wrap;html=1;aspect=fixed;fontSize=30;fontFamily=Times New Roman;" vertex="1" parent="1">
          <mxGeometry x="2370" y="1440" width="60" height="60" as="geometry" />
        </mxCell>
        <mxCell id="TaqGsP5J0sDB7Q5JTHYA-357" style="edgeStyle=none;rounded=0;orthogonalLoop=1;jettySize=auto;html=1;exitX=0.5;exitY=1;exitDx=0;exitDy=0;entryX=0.5;entryY=0;entryDx=0;entryDy=0;" edge="1" parent="1" source="TaqGsP5J0sDB7Q5JTHYA-340" target="TaqGsP5J0sDB7Q5JTHYA-355">
          <mxGeometry relative="1" as="geometry" />
        </mxCell>
        <mxCell id="TaqGsP5J0sDB7Q5JTHYA-358" style="edgeStyle=none;rounded=0;orthogonalLoop=1;jettySize=auto;html=1;exitX=0.5;exitY=1;exitDx=0;exitDy=0;entryX=0.5;entryY=0;entryDx=0;entryDy=0;" edge="1" parent="1" source="TaqGsP5J0sDB7Q5JTHYA-340" target="TaqGsP5J0sDB7Q5JTHYA-356">
          <mxGeometry relative="1" as="geometry" />
        </mxCell>
        <mxCell id="TaqGsP5J0sDB7Q5JTHYA-359" style="edgeStyle=none;rounded=0;orthogonalLoop=1;jettySize=auto;html=1;exitX=0.5;exitY=1;exitDx=0;exitDy=0;entryX=0.5;entryY=0;entryDx=0;entryDy=0;" edge="1" parent="1" source="TaqGsP5J0sDB7Q5JTHYA-340" target="TaqGsP5J0sDB7Q5JTHYA-354">
          <mxGeometry relative="1" as="geometry" />
        </mxCell>
        <mxCell id="TaqGsP5J0sDB7Q5JTHYA-360" style="edgeStyle=none;rounded=0;orthogonalLoop=1;jettySize=auto;html=1;exitX=0.5;exitY=1;exitDx=0;exitDy=0;entryX=0.5;entryY=0;entryDx=0;entryDy=0;" edge="1" parent="1" source="TaqGsP5J0sDB7Q5JTHYA-340" target="TaqGsP5J0sDB7Q5JTHYA-353">
          <mxGeometry relative="1" as="geometry" />
        </mxCell>
        <mxCell id="TaqGsP5J0sDB7Q5JTHYA-361" style="edgeStyle=none;rounded=0;orthogonalLoop=1;jettySize=auto;html=1;exitX=0.5;exitY=1;exitDx=0;exitDy=0;entryX=0.5;entryY=0;entryDx=0;entryDy=0;" edge="1" parent="1" source="TaqGsP5J0sDB7Q5JTHYA-340" target="TaqGsP5J0sDB7Q5JTHYA-352">
          <mxGeometry relative="1" as="geometry" />
        </mxCell>
        <mxCell id="TaqGsP5J0sDB7Q5JTHYA-340" value="N" style="ellipse;whiteSpace=wrap;html=1;aspect=fixed;fontSize=30;fontFamily=Times New Roman;" vertex="1" parent="1">
          <mxGeometry x="2430" y="1440" width="60" height="60" as="geometry" />
        </mxCell>
        <mxCell id="TaqGsP5J0sDB7Q5JTHYA-341" value="l" style="ellipse;whiteSpace=wrap;html=1;aspect=fixed;fontSize=30;fontFamily=Times New Roman;" vertex="1" parent="1">
          <mxGeometry x="2100" y="1440" width="60" height="60" as="geometry" />
        </mxCell>
        <mxCell id="TaqGsP5J0sDB7Q5JTHYA-363" style="edgeStyle=none;rounded=0;orthogonalLoop=1;jettySize=auto;html=1;exitX=0.5;exitY=1;exitDx=0;exitDy=0;entryX=0.5;entryY=0;entryDx=0;entryDy=0;" edge="1" parent="1" source="TaqGsP5J0sDB7Q5JTHYA-342" target="TaqGsP5J0sDB7Q5JTHYA-350">
          <mxGeometry relative="1" as="geometry" />
        </mxCell>
        <mxCell id="TaqGsP5J0sDB7Q5JTHYA-364" style="edgeStyle=none;rounded=0;orthogonalLoop=1;jettySize=auto;html=1;exitX=0.5;exitY=1;exitDx=0;exitDy=0;entryX=0.5;entryY=0;entryDx=0;entryDy=0;" edge="1" parent="1" source="TaqGsP5J0sDB7Q5JTHYA-342" target="TaqGsP5J0sDB7Q5JTHYA-349">
          <mxGeometry relative="1" as="geometry" />
        </mxCell>
        <mxCell id="TaqGsP5J0sDB7Q5JTHYA-342" value="M" style="ellipse;whiteSpace=wrap;html=1;aspect=fixed;fontSize=30;fontFamily=Times New Roman;" vertex="1" parent="1">
          <mxGeometry x="2160" y="1440" width="60" height="60" as="geometry" />
        </mxCell>
        <mxCell id="TaqGsP5J0sDB7Q5JTHYA-347" style="edgeStyle=none;rounded=0;orthogonalLoop=1;jettySize=auto;html=1;exitX=0.5;exitY=1;exitDx=0;exitDy=0;" edge="1" parent="1" source="TaqGsP5J0sDB7Q5JTHYA-324">
          <mxGeometry relative="1" as="geometry">
            <mxPoint x="2400" y="1440" as="targetPoint" />
          </mxGeometry>
        </mxCell>
        <mxCell id="TaqGsP5J0sDB7Q5JTHYA-349" value="*" style="ellipse;whiteSpace=wrap;html=1;aspect=fixed;fontSize=30;fontFamily=Times New Roman;" vertex="1" parent="1">
          <mxGeometry x="2009" y="1560" width="60" height="60" as="geometry" />
        </mxCell>
        <mxCell id="TaqGsP5J0sDB7Q5JTHYA-382" style="edgeStyle=none;rounded=0;orthogonalLoop=1;jettySize=auto;html=1;exitX=0.5;exitY=1;exitDx=0;exitDy=0;entryX=0.5;entryY=0;entryDx=0;entryDy=0;" edge="1" parent="1" source="TaqGsP5J0sDB7Q5JTHYA-350" target="TaqGsP5J0sDB7Q5JTHYA-365">
          <mxGeometry relative="1" as="geometry" />
        </mxCell>
        <mxCell id="TaqGsP5J0sDB7Q5JTHYA-384" style="edgeStyle=none;rounded=0;orthogonalLoop=1;jettySize=auto;html=1;exitX=0.5;exitY=1;exitDx=0;exitDy=0;entryX=0.5;entryY=0;entryDx=0;entryDy=0;" edge="1" parent="1" source="TaqGsP5J0sDB7Q5JTHYA-350" target="TaqGsP5J0sDB7Q5JTHYA-366">
          <mxGeometry relative="1" as="geometry" />
        </mxCell>
        <mxCell id="TaqGsP5J0sDB7Q5JTHYA-385" style="edgeStyle=none;rounded=0;orthogonalLoop=1;jettySize=auto;html=1;exitX=0.5;exitY=1;exitDx=0;exitDy=0;entryX=0.5;entryY=0;entryDx=0;entryDy=0;" edge="1" parent="1" source="TaqGsP5J0sDB7Q5JTHYA-350" target="TaqGsP5J0sDB7Q5JTHYA-367">
          <mxGeometry relative="1" as="geometry" />
        </mxCell>
        <mxCell id="TaqGsP5J0sDB7Q5JTHYA-386" style="edgeStyle=none;rounded=0;orthogonalLoop=1;jettySize=auto;html=1;exitX=0.5;exitY=1;exitDx=0;exitDy=0;entryX=0.5;entryY=0;entryDx=0;entryDy=0;" edge="1" parent="1" source="TaqGsP5J0sDB7Q5JTHYA-350" target="TaqGsP5J0sDB7Q5JTHYA-368">
          <mxGeometry relative="1" as="geometry" />
        </mxCell>
        <mxCell id="TaqGsP5J0sDB7Q5JTHYA-350" value="E" style="ellipse;whiteSpace=wrap;html=1;aspect=fixed;fontSize=30;fontFamily=Times New Roman;" vertex="1" parent="1">
          <mxGeometry x="2069" y="1560" width="60" height="60" as="geometry" />
        </mxCell>
        <mxCell id="TaqGsP5J0sDB7Q5JTHYA-351" value="i" style="ellipse;whiteSpace=wrap;html=1;aspect=fixed;fontSize=30;fontFamily=Times New Roman;" vertex="1" parent="1">
          <mxGeometry x="2160" y="1560" width="60" height="60" as="geometry" />
        </mxCell>
        <mxCell id="TaqGsP5J0sDB7Q5JTHYA-352" value="i" style="ellipse;whiteSpace=wrap;html=1;aspect=fixed;fontSize=30;fontFamily=Times New Roman;" vertex="1" parent="1">
          <mxGeometry x="2250" y="1560" width="60" height="60" as="geometry" />
        </mxCell>
        <mxCell id="TaqGsP5J0sDB7Q5JTHYA-353" value="=" style="ellipse;whiteSpace=wrap;html=1;aspect=fixed;fontSize=30;fontFamily=Times New Roman;" vertex="1" parent="1">
          <mxGeometry x="2310" y="1560" width="60" height="60" as="geometry" />
        </mxCell>
        <mxCell id="TaqGsP5J0sDB7Q5JTHYA-380" style="edgeStyle=none;rounded=0;orthogonalLoop=1;jettySize=auto;html=1;exitX=0.5;exitY=1;exitDx=0;exitDy=0;entryX=0.5;entryY=0;entryDx=0;entryDy=0;" edge="1" parent="1" source="TaqGsP5J0sDB7Q5JTHYA-354" target="TaqGsP5J0sDB7Q5JTHYA-371">
          <mxGeometry relative="1" as="geometry" />
        </mxCell>
        <mxCell id="TaqGsP5J0sDB7Q5JTHYA-381" style="edgeStyle=none;rounded=0;orthogonalLoop=1;jettySize=auto;html=1;exitX=0.5;exitY=1;exitDx=0;exitDy=0;entryX=0.5;entryY=0;entryDx=0;entryDy=0;" edge="1" parent="1" source="TaqGsP5J0sDB7Q5JTHYA-354" target="TaqGsP5J0sDB7Q5JTHYA-370">
          <mxGeometry relative="1" as="geometry" />
        </mxCell>
        <mxCell id="TaqGsP5J0sDB7Q5JTHYA-354" value="E" style="ellipse;whiteSpace=wrap;html=1;aspect=fixed;fontSize=30;fontFamily=Times New Roman;" vertex="1" parent="1">
          <mxGeometry x="2370" y="1560" width="60" height="60" as="geometry" />
        </mxCell>
        <mxCell id="TaqGsP5J0sDB7Q5JTHYA-355" value=";" style="ellipse;whiteSpace=wrap;html=1;aspect=fixed;fontSize=30;fontFamily=Times New Roman;" vertex="1" parent="1">
          <mxGeometry x="2430" y="1560" width="60" height="60" as="geometry" />
        </mxCell>
        <mxCell id="TaqGsP5J0sDB7Q5JTHYA-376" style="edgeStyle=none;rounded=0;orthogonalLoop=1;jettySize=auto;html=1;exitX=0.5;exitY=1;exitDx=0;exitDy=0;entryX=0.5;entryY=0;entryDx=0;entryDy=0;" edge="1" parent="1" source="TaqGsP5J0sDB7Q5JTHYA-356" target="TaqGsP5J0sDB7Q5JTHYA-372">
          <mxGeometry relative="1" as="geometry" />
        </mxCell>
        <mxCell id="TaqGsP5J0sDB7Q5JTHYA-378" style="edgeStyle=none;rounded=0;orthogonalLoop=1;jettySize=auto;html=1;exitX=0.5;exitY=1;exitDx=0;exitDy=0;entryX=0.5;entryY=0;entryDx=0;entryDy=0;" edge="1" parent="1" source="TaqGsP5J0sDB7Q5JTHYA-356" target="TaqGsP5J0sDB7Q5JTHYA-374">
          <mxGeometry relative="1" as="geometry" />
        </mxCell>
        <mxCell id="TaqGsP5J0sDB7Q5JTHYA-379" style="edgeStyle=none;rounded=0;orthogonalLoop=1;jettySize=auto;html=1;exitX=0.5;exitY=1;exitDx=0;exitDy=0;entryX=0.5;entryY=0;entryDx=0;entryDy=0;" edge="1" parent="1" source="TaqGsP5J0sDB7Q5JTHYA-356" target="TaqGsP5J0sDB7Q5JTHYA-375">
          <mxGeometry relative="1" as="geometry" />
        </mxCell>
        <mxCell id="TaqGsP5J0sDB7Q5JTHYA-356" value="N" style="ellipse;whiteSpace=wrap;html=1;aspect=fixed;fontSize=30;fontFamily=Times New Roman;" vertex="1" parent="1">
          <mxGeometry x="2490" y="1560" width="60" height="60" as="geometry" />
        </mxCell>
        <mxCell id="TaqGsP5J0sDB7Q5JTHYA-365" value="(" style="ellipse;whiteSpace=wrap;html=1;aspect=fixed;fontSize=30;fontFamily=Times New Roman;" vertex="1" parent="1">
          <mxGeometry x="1949" y="1680" width="60" height="60" as="geometry" />
        </mxCell>
        <mxCell id="TaqGsP5J0sDB7Q5JTHYA-366" value="E" style="ellipse;whiteSpace=wrap;html=1;aspect=fixed;fontSize=30;fontFamily=Times New Roman;" vertex="1" parent="1">
          <mxGeometry x="2009" y="1680" width="60" height="60" as="geometry" />
        </mxCell>
        <mxCell id="TaqGsP5J0sDB7Q5JTHYA-367" value=")" style="ellipse;whiteSpace=wrap;html=1;aspect=fixed;fontSize=30;fontFamily=Times New Roman;" vertex="1" parent="1">
          <mxGeometry x="2069" y="1680" width="60" height="60" as="geometry" />
        </mxCell>
        <mxCell id="TaqGsP5J0sDB7Q5JTHYA-368" value="M" style="ellipse;whiteSpace=wrap;html=1;aspect=fixed;fontSize=30;fontFamily=Times New Roman;" vertex="1" parent="1">
          <mxGeometry x="2129" y="1680" width="60" height="60" as="geometry" />
        </mxCell>
        <mxCell id="TaqGsP5J0sDB7Q5JTHYA-370" value="l" style="ellipse;whiteSpace=wrap;html=1;aspect=fixed;fontSize=30;fontFamily=Times New Roman;" vertex="1" parent="1">
          <mxGeometry x="2219" y="1680" width="60" height="60" as="geometry" />
        </mxCell>
        <mxCell id="TaqGsP5J0sDB7Q5JTHYA-371" value="M" style="ellipse;whiteSpace=wrap;html=1;aspect=fixed;fontSize=30;fontFamily=Times New Roman;" vertex="1" parent="1">
          <mxGeometry x="2279" y="1680" width="60" height="60" as="geometry" />
        </mxCell>
        <mxCell id="TaqGsP5J0sDB7Q5JTHYA-372" value="o" style="ellipse;whiteSpace=wrap;html=1;aspect=fixed;fontSize=30;fontFamily=Times New Roman;" vertex="1" parent="1">
          <mxGeometry x="2370" y="1680" width="60" height="60" as="geometry" />
        </mxCell>
        <mxCell id="TaqGsP5J0sDB7Q5JTHYA-373" value="L" style="ellipse;whiteSpace=wrap;html=1;aspect=fixed;fontSize=30;fontFamily=Times New Roman;" vertex="1" parent="1">
          <mxGeometry x="2430" y="1680" width="60" height="60" as="geometry" />
        </mxCell>
        <mxCell id="TaqGsP5J0sDB7Q5JTHYA-374" value=";" style="ellipse;whiteSpace=wrap;html=1;aspect=fixed;fontSize=30;fontFamily=Times New Roman;" vertex="1" parent="1">
          <mxGeometry x="2490" y="1680" width="60" height="60" as="geometry" />
        </mxCell>
        <mxCell id="TaqGsP5J0sDB7Q5JTHYA-375" value="N" style="ellipse;whiteSpace=wrap;html=1;aspect=fixed;fontSize=30;fontFamily=Times New Roman;" vertex="1" parent="1">
          <mxGeometry x="2550" y="1680" width="60" height="60" as="geometry" />
        </mxCell>
        <mxCell id="TaqGsP5J0sDB7Q5JTHYA-377" style="edgeStyle=none;rounded=0;orthogonalLoop=1;jettySize=auto;html=1;exitX=0.5;exitY=1;exitDx=0;exitDy=0;entryX=0.5;entryY=0;entryDx=0;entryDy=0;" edge="1" parent="1" source="TaqGsP5J0sDB7Q5JTHYA-356" target="TaqGsP5J0sDB7Q5JTHYA-373">
          <mxGeometry relative="1" as="geometry">
            <mxPoint x="2530" y="1650" as="targetPoint" />
          </mxGeometry>
        </mxCell>
      </root>
    </mxGraphModel>
  </diagram>
</mxfile>
